<?xml version="1.0" encoding="utf-8"?>
<!-- Generator: Adobe Illustrator 19.0.0, SVG Export Plug-In . SVG Version: 6.00 Build 0)  -->
<svg version="1.1" id="Layer_1" xmlns="http://www.w3.org/2000/svg" xmlns:xlink="http://www.w3.org/1999/xlink" x="0px" y="0px"
	 viewBox="0 0 612 792" style="enable-background:new 0 0 612 792;" xml:space="preserve">
<style type="text/css">
	.st0{fill:#E3E5E5;}
	.st1{fill:#C4E0EC;}
	.st2{fill:#F5F7F7;}
	.st3{fill:#E2E2E2;}
	.st4{fill:#FFFFFF;}
	.st5{fill:#E8EAE9;}
	.st6{fill:#588BA8;}
	.st7{fill:#42718A;}
	.st8{fill:#6FA6BF;}
	.st9{fill:#F9D5AC;}
	.st10{fill:#139BD1;}
	.st11{fill:#FBBA99;}
	.st12{fill:#0D8DB5;}
	.st13{fill:#12426D;}
	.st14{fill:#0D8CB2;}
	.st15{fill:#C4C4C4;}
	.st16{fill:#79BAE6;}
	.st17{fill:#8D9293;}
	.st18{fill:#439ED8;}
	.st19{fill:#7B7F80;}
	.st20{fill:#E5E5E5;}
	.st21{fill:#646158;}
	.st22{fill:#7F7E79;}
	.st23{fill:#57504D;}
	.st24{fill:#FBB998;}
	.st25{fill:#F7E9CA;}
	.st26{fill:#13436E;}
	.st27{fill:#11426E;}
	.st28{fill:#AD82AF;}
	.st29{fill:#836180;}
	.st30{fill:#DE647C;}
	.st31{fill:#BE97C0;}
	.st32{fill:#AF425C;}
	.st33{fill:#F27794;}
	.st34{fill:#D9B8D8;}
</style>
<g id="Star_1">
	<polygon id="XMLID_133_" class="st0" points="198,193.7 195,187.7 190.6,186.3 184.9,189 183.6,196 187.1,201.1 192.5,201.1 
		195,199.6 	"/>
	<g id="XMLID_478_">
		<path id="XMLID_479_" class="st1" d="M190.6,202.6c-4.9,0-8.9-4-8.9-8.9c0-4.9,4-8.9,8.9-8.9s8.9,4,8.9,8.9
			C199.6,198.6,195.6,202.6,190.6,202.6z M190.6,187.8c-3.2,0-5.8,2.6-5.8,5.8c0,3.2,2.6,5.8,5.8,5.8c3.2,0,5.8-2.6,5.8-5.8
			C196.5,190.4,193.9,187.8,190.6,187.8z"/>
	</g>
</g>
<g id="Star_1_1_">
	<polygon id="XMLID_158_" class="st0" points="518.5,378 515.4,372 511.1,370.6 505.3,373.3 504.1,380.3 507.5,385.4 512.9,385.4 
		515.4,384 	"/>
	<g id="XMLID_149_">
		<path id="XMLID_151_" class="st1" d="M511.1,386.9c-4.9,0-8.9-4-8.9-8.9c0-4.9,4-8.9,8.9-8.9c4.9,0,8.9,4,8.9,8.9
			C520,382.9,516,386.9,511.1,386.9z M511.1,372.1c-3.2,0-5.8,2.6-5.8,5.8s2.6,5.8,5.8,5.8c3.2,0,5.8-2.6,5.8-5.8
			S514.3,372.1,511.1,372.1z"/>
	</g>
</g>
<g id="Background_1">
	<polygon id="XMLID_130_" class="st2" points="386.5,134.8 380.1,130 371.1,132.4 368.9,136.1 370.4,145.7 377.7,147.6 384.8,145.3 
			"/>
	<polygon id="XMLID_128_" class="st2" points="377.4,120.4 389.2,123.4 411.2,60.9 391.6,53.6 	"/>
	<path id="XMLID_125_" class="st0" d="M370.1,143.6c0,0,7.7-0.3,14.9-9.9l1.5,6.3l-3.8,6l-6.7,1.2L370.1,143.6z"/>
	<path id="XMLID_124_" class="st0" d="M384.5,122.2c1.2-1.7,18.5-65.2,18.5-65.2l8.7,2.5l-23.9,63.8L384.5,122.2z"/>
	<g id="XMLID_469_">
		<g id="XMLID_474_">
			<path id="XMLID_475_" class="st1" d="M389.3,126.9l-15.2-4.5L389.4,50l26.2,7.7L389.3,126.9z M380.8,118.4l5,1.5l22.2-58.4
				l-14.2-4.2L380.8,118.4z"/>
		</g>
		<g id="XMLID_470_">
			<path id="XMLID_471_" class="st1" d="M377.5,150.5c-1.1,0-2.2-0.2-3.3-0.5c-6.3-1.8-9.9-8.4-8-14.7c1.8-6.3,8.4-9.9,14.7-8
				c6.3,1.8,9.9,8.4,8,14.7C387.4,147.1,382.7,150.5,377.5,150.5z M377.6,132.5c-2.6,0-5.1,1.7-5.8,4.4c-0.9,3.2,0.9,6.6,4.1,7.6
				c1.6,0.5,3.2,0.3,4.6-0.5c1.4-0.8,2.5-2.1,2.9-3.6c0.9-3.2-0.9-6.6-4.1-7.6C378.7,132.6,378.1,132.5,377.6,132.5z"/>
		</g>
	</g>
</g>
<g id="Background_2">
	<polygon id="XMLID_131_" class="st2" points="436.4,165.6 436.4,157.2 427.9,153.3 417.6,157 416.2,168.1 424.3,174.3 432.7,174.3 
			"/>
	<polygon id="XMLID_129_" class="st2" points="429.7,141.5 444.1,153.3 457.6,139.1 468.3,143.4 478.2,142.1 493.1,132.5 
		500.8,120.7 498.8,104.9 489,88.5 477.9,77 463.5,94.9 472.3,102.5 476.6,111.3 476.7,120.7 468.3,124.5 459.1,123.4 448,119.1 	
		"/>
	<path id="XMLID_127_" class="st0" d="M437.8,146.3l19.5-16.2c0,0,26.7,19.5,42.7-21l-1.4,18.6l-15,12l-12.9,5.1l-15-6l-10.2,14.5
		L437.8,146.3z"/>
	<path id="XMLID_126_" class="st0" d="M416.2,168.1c0,0,14.5,3.7,18.7-11.6l1.6,12l-6.8,5.9h-8.3L416.2,168.1z"/>
	<g id="XMLID_460_">
		<g id="XMLID_465_">
			<path id="XMLID_466_" class="st1" d="M425.9,177.3c-3,0-6.1-1-8.6-3.1c-2.8-2.3-4.5-5.5-4.9-9.1c-0.4-3.6,0.7-7.1,3-9.9
				c4.7-5.8,13.3-6.6,19.1-1.9c5.8,4.7,6.6,13.3,1.9,19.1v0C433.7,175.7,429.8,177.3,425.9,177.3z M425.9,156c-2.3,0-4.5,1-6,2.9
				c-1.3,1.6-1.9,3.6-1.7,5.7c0.2,2.1,1.2,3.9,2.8,5.3c3.3,2.7,8.2,2.2,11-1.1l0,0c2.7-3.3,2.2-8.2-1.1-11
				C429.4,156.6,427.6,156,425.9,156z"/>
		</g>
		<g id="XMLID_461_">
			<path id="XMLID_462_" class="st1" d="M444.3,157.2l-18.7-15.3l22.8-27.8l2.2,1.8c2.6,2.1,10.6,7.3,16.7,6.4
				c2.5-0.4,4.5-1.7,6-4.1c1-1.5,1.3-3.1,0.9-4.9c-1.3-6.3-10-13.1-13.2-15.2l-2.7-1.8L477.5,73l2.2,1.8c1,0.8,23.5,19.5,23.9,39.8
				c0.2,8.2-3.2,15.4-10.1,21.5c-16.9,15-30.3,9.9-35.5,6.8L444.3,157.2z M433.7,141.1l10.1,8.3l13.7-14.3l2.1,1.9
				c0.5,0.4,12.4,10.6,30.1-5.2c5.6-5,8.3-10.6,8.1-17c-0.3-14.3-14.2-28.5-19.7-33.6l-11.5,14c4.1,3.1,11.6,9.7,13.1,17
				c0.7,3.3,0.1,6.4-1.7,9.2c-2.5,3.8-5.8,6-10,6.7c-7.3,1.1-15.1-3.3-18.9-5.9L433.7,141.1z"/>
		</g>
	</g>
</g>
<g id="Star_2">
	<polygon id="XMLID_132_" class="st2" points="525.9,211.9 525.9,203.7 517.7,198.7 508.6,202.8 508.6,211.9 514.4,217 520.6,216.5 
			"/>
	<g id="XMLID_456_">
		<path id="XMLID_457_" class="st1" d="M517.7,219.4c-6.4,0-11.6-5.2-11.6-11.6s5.2-11.6,11.6-11.6s11.6,5.2,11.6,11.6
			S524.1,219.4,517.7,219.4z M517.7,201.2c-3.7,0-6.7,3-6.7,6.7s3,6.7,6.7,6.7c3.7,0,6.7-3,6.7-6.7S521.4,201.2,517.7,201.2z"/>
	</g>
</g>
<g id="Star_3">
	<polygon id="XMLID_134_" class="st2" points="112.6,355.7 103.4,358 103.4,364.8 108.6,373 116.5,373 121,369.9 121.7,361.3 	"/>
	<g id="XMLID_452_">
		<path id="XMLID_453_" class="st1" d="M112.6,376.4c-6.4,0-11.6-5.2-11.6-11.6s5.2-11.6,11.6-11.6c6.4,0,11.6,5.2,11.6,11.6
			S118.9,376.4,112.6,376.4z M112.6,358.1c-3.7,0-6.7,3-6.7,6.7s3,6.7,6.7,6.7c3.7,0,6.7-3,6.7-6.7S116.2,358.1,112.6,358.1z"/>
	</g>
</g>
<g id="Cabinet">
	<rect id="XMLID_148_" x="85.5" y="464.8" class="st2" width="274.9" height="191.4"/>
	<rect id="XMLID_147_" x="97.1" y="476.4" class="st3" width="254.2" height="178.8"/>
	<path id="XMLID_146_" class="st0" d="M115.1,476.4c0,0,29.6,181.8,161.9,181.8H97.1V476.4H115.1z"/>
	<polygon id="XMLID_145_" class="st2" points="112.7,608.5 112.7,571.9 119.4,567.3 128.3,560.7 129.9,542.9 141.9,542.9 
		141.9,554.5 144.3,562.2 153.7,567.3 157.4,574.6 159.1,591.3 159.1,608.5 	"/>
	<polygon id="XMLID_144_" class="st2" points="170.5,606.7 170.5,565.8 175.7,557.6 179.6,549.2 181.5,542.9 187.9,542.9 189,549.7 
		192.4,555.9 196.9,565.8 197.8,572.4 197.8,608.5 	"/>
	<polygon id="XMLID_143_" class="st2" points="119.4,528.3 119.4,502 173.1,502 173.1,530.8 119.4,530.8 	"/>
	<polygon id="XMLID_142_" class="st2" points="191.2,530.8 190.6,518.8 195.8,513.6 202.3,512.2 217.3,513.4 221.5,516.8 223,523.3 
		223,531.3 	"/>
	<path id="XMLID_141_" class="st4" d="M135.8,509.9c0,0-1.5,9.4,10.4,21.3h-28.1l0.8-21.3H135.8z"/>
	<polygon id="XMLID_140_" class="st4" points="121,501.7 121,509.9 172.4,509.9 173.1,502 	"/>
	<polygon id="XMLID_139_" class="st4" points="148.9,517.3 148.9,525 166.1,525 166.1,516.4 	"/>
	<path id="XMLID_138_" class="st4" d="M211.1,513.4c0,0,4,7,3,15.4l8.8,2.5v-8l-1.4-6.5l-4.2-3.4H211.1z"/>
	<path id="XMLID_137_" class="st4" d="M184.2,542.9l-0.3,10.2c0,0-4,6-4.5,16.6s0,37.9,0,37.9l-8.8-0.8v-28.4v-12.6l5.1-8.2l3.4-6
		l2.4-8.7H184.2z"/>
	<path id="XMLID_136_" class="st4" d="M135.8,554.5v12.7c0,0-8.4,2.5-7.7,10.1c0.8,7.7,0,31,0,31l-15.4-1.7v-34.8l9.2-6.1l4.2-3.6
		l6-7.7H135.8z"/>
	<polyline id="XMLID_135_" class="st5" points="112.7,578.4 159.1,578.4 159.1,599.2 113.8,599.2 112.8,577.2 	"/>
	<g id="XMLID_348_">
		<g id="XMLID_439_">
			<g id="XMLID_447_">
				<g id="XMLID_448_">
					<path id="XMLID_449_" class="st1" d="M362.9,659.1h-16.5V478.9H99.5v180.2H83V462.3h279.9V659.1z M351.3,654.1h6.7V467.3h-270
						v186.9h6.7V473.9h256.7V654.1z"/>
				</g>
			</g>
			<g id="XMLID_442_">
				<path id="XMLID_107_" class="st1" d="M345.1,533.8h-248c-1.4,0-2.5-1.1-2.5-2.5c0-1.4,1.1-2.5,2.5-2.5h248
					c1.4,0,2.5,1.1,2.5,2.5C347.5,532.7,346.4,533.8,345.1,533.8z"/>
			</g>
			<g id="XMLID_440_">
				<path id="XMLID_106_" class="st1" d="M348.8,610.9H97.1c-1.4,0-2.5-1.1-2.5-2.5s1.1-2.5,2.5-2.5h251.7c1.4,0,2.5,1.1,2.5,2.5
					S350.2,610.9,348.8,610.9z"/>
			</g>
		</g>
		<g id="XMLID_431_">
			<path id="XMLID_433_" class="st1" d="M175.6,533.8h-58.6v-34.2h58.6V533.8z M121.8,528.8h48.8v-24.3h-48.8V528.8z"/>
		</g>
		<g id="XMLID_427_">
			<path id="XMLID_103_" class="st1" d="M173.1,511.5h-53.7c-0.9,0-1.6-0.7-1.6-1.6c0-0.9,0.7-1.6,1.6-1.6h53.7
				c0.9,0,1.6,0.7,1.6,1.6C174.7,510.8,174,511.5,173.1,511.5z"/>
		</g>
		<g id="XMLID_385_">
			<path id="XMLID_102_" class="st1" d="M190.6,532.9c-0.9,0-1.6-0.7-1.6-1.6v-9.7c0-5.7,4.6-10.3,10.3-10.3h14.9
				c5.7,0,10.3,4.6,10.3,10.3v9.6c0,0.9-0.7,1.6-1.6,1.6c-0.9,0-1.6-0.7-1.6-1.6v-9.6c0-3.9-3.2-7.2-7.2-7.2h-14.9
				c-3.9,0-7.2,3.2-7.2,7.2v9.7C192.2,532.2,191.5,532.9,190.6,532.9z"/>
		</g>
		<g id="XMLID_380_">
			<path id="XMLID_381_" class="st1" d="M167.7,526.1H147v-10.9h20.6V526.1z M150.2,523h14.4v-4.7h-14.4V523z"/>
		</g>
		<g id="XMLID_362_">
			<g id="XMLID_377_">
				<path id="XMLID_99_" class="st1" d="M159.1,610.9c-1.4,0-2.5-1.1-2.5-2.5v-28.1c0,0-0.5-10.8-6.3-11.9c-7.8-1.4-10.5-8-11-12.9
					h-7c-0.5,4.8-3.2,11.5-11,12.9c-5.9,1-6.3,11.8-6.3,11.9v28.1c0,1.4-1.1,2.5-2.5,2.5s-2.5-1.1-2.5-2.5v-28.1
					c0-0.7,0.5-15,10.4-16.7c7.4-1.3,7-10,7-10.3l-0.1-2.6l16.9,0l-0.1,2.6c0,0.4-0.4,9,7,10.3c9.9,1.7,10.4,16.1,10.4,16.7v28.2
					C161.5,609.8,160.4,610.9,159.1,610.9z"/>
			</g>
			<g id="XMLID_373_">
				<path id="XMLID_98_" class="st1" d="M141.9,555.6c-1.4,0-2.5-1.1-2.5-2.5v-7.8h-7v7.8c0,1.4-1.1,2.5-2.5,2.5
					c-1.4,0-2.5-1.1-2.5-2.5v-12.7h16.9v12.7C144.4,554.5,143.3,555.6,141.9,555.6z"/>
			</g>
			<g id="XMLID_369_">
				<path id="XMLID_97_" class="st1" d="M159.1,579.9h-46.4c-0.9,0-1.6-0.7-1.6-1.6c0-0.9,0.7-1.6,1.6-1.6h46.4
					c0.9,0,1.6,0.7,1.6,1.6C160.6,579.2,159.9,579.9,159.1,579.9z"/>
			</g>
			<g id="XMLID_367_">
				<path id="XMLID_96_" class="st1" d="M159.1,600.2h-46.4c-0.9,0-1.6-0.7-1.6-1.6s0.7-1.6,1.6-1.6h46.4c0.9,0,1.6,0.7,1.6,1.6
					S159.9,600.2,159.1,600.2z"/>
			</g>
			<g id="XMLID_365_">
				<path id="XMLID_95_" class="st1" d="M139.8,586h-13.6c-0.9,0-1.6-0.7-1.6-1.6s0.7-1.6,1.6-1.6h13.6c0.9,0,1.6,0.7,1.6,1.6
					S140.7,586,139.8,586z"/>
			</g>
			<g id="XMLID_363_">
				<path id="XMLID_94_" class="st1" d="M152.1,586h-7.8c-0.9,0-1.6-0.7-1.6-1.6s0.7-1.6,1.6-1.6h7.8c0.9,0,1.6,0.7,1.6,1.6
					S153,586,152.1,586z"/>
			</g>
		</g>
		<g id="XMLID_357_">
			<g id="XMLID_360_">
				<path id="XMLID_93_" class="st1" d="M170.5,610c-0.9,0-1.6-0.7-1.6-1.6v-38.3c0.1-0.5,1.1-8.5,5.6-15c5.3-7.6,4.4-11.9,4.4-11.9
					l-0.5-1.9l5.4,0c0.9,0,1.6,0.7,1.6,1.6c0,0.9-0.7,1.6-1.6,1.6h-1.7c0,2.3-0.9,6.6-5,12.6c-4.1,5.8-5,13.3-5,13.4l0,38.1
					C172.1,609.3,171.4,610,170.5,610z"/>
			</g>
			<g id="XMLID_358_">
				<path id="XMLID_92_" class="st1" d="M197.8,610c-0.9,0-1.6-0.7-1.6-1.6v-38.3c0,0,0,0,0,0c0,0-1-7.4-5-13.2
					c-4.2-6-5-10.2-5-12.6h-1.7c-0.9,0-1.6-0.7-1.6-1.6c0-0.9,0.7-1.6,1.6-1.6h5.5l-0.6,2c0,0-1,4.3,4.4,11.9
					c4.5,6.4,5.5,14.4,5.6,14.8l0,38.5C199.4,609.3,198.7,610,197.8,610z"/>
			</g>
		</g>
		<g id="XMLID_355_">
			<path id="XMLID_91_" class="st1" d="M197.8,571.7h-27.3c-0.9,0-1.6-0.7-1.6-1.6c0-0.9,0.7-1.6,1.6-1.6h27.3
				c0.9,0,1.6,0.7,1.6,1.6C199.4,571,198.7,571.7,197.8,571.7z"/>
		</g>
		<g id="XMLID_353_">
			<path id="XMLID_90_" class="st1" d="M197.8,591.2h-27.3c-0.9,0-1.6-0.7-1.6-1.6s0.7-1.6,1.6-1.6h27.3c0.9,0,1.6,0.7,1.6,1.6
				S198.7,591.2,197.8,591.2z"/>
		</g>
		<g id="XMLID_351_">
			<path id="XMLID_89_" class="st1" d="M175.7,586c-0.9,0-1.6-0.7-1.6-1.6v-9c0-0.9,0.7-1.6,1.6-1.6c0.9,0,1.6,0.7,1.6,1.6v9
				C177.2,585.3,176.5,586,175.7,586z"/>
		</g>
		<g id="XMLID_349_">
			<path id="XMLID_88_" class="st1" d="M214.2,532.8c0,0-0.1,0-0.1,0c-0.9-0.1-1.5-0.8-1.4-1.7c0.9-12.1-2.7-16.6-2.7-16.6
				c-0.6-0.6-0.5-1.6,0.2-2.2c0.6-0.6,1.6-0.5,2.2,0.2c0.2,0.2,4.5,5.4,3.4,18.9C215.7,532.1,215,532.8,214.2,532.8z"/>
		</g>
	</g>
</g>
<g id="Left_Arm">
	<path id="XMLID_87_" class="st6" d="M375.3,433.7c0,0,5.2,65.9-79.8,76.9c0,0-32.4,1.3-61.4-11.5c0,0-42.7-19.1-59-129.2
		c3.5-3.3,20.5-15.3,38.9-12.6c0,0,4.9,55.7,37.6,85.1C251.4,442.5,312.5,463.6,375.3,433.7z"/>
	<path id="XMLID_86_" class="st7" d="M224.4,492.1c0,0,93.7,21.6,147.2-35.9c0,0-5.3,43.4-71.1,53.8
		C300.5,509.9,247.9,513.9,224.4,492.1z"/>
	<path id="XMLID_85_" class="st8" d="M204.1,383.5c0,0,21.4,64.7,41.9,72.7c0,0,70.2,27.8,127.6-5.4l1.7-17c0,0-76.4,28-123.8,8.7
		c0,0-25.4-28.6-32.6-59H204.1z"/>
	<path id="XMLID_81_" class="st9" d="M210.7,313.5v-33.1v-11.8l-3-3.1h-5.3l-5.6,4.7l-5.7,8.8l-3,14.8l-6.5,0.3l-18.1,10l-8.8,11.9
		v14.6l3.7,9.8l5.8,5.2l-0.1,10.2l2.8,6.2l8.1,8c0,0,16.4-17.4,38.9-12.6l11.6-13.6l2.7-10.7l-8.4-13.8L210.7,313.5z"/>
	<path id="XMLID_80_" class="st10" d="M180.1,398c0,0,15.8-19.4,38.8-14.5l-5-26.2c0,0-25.9-3.8-38.9,12.6
		C175,369.9,176.2,398.9,180.1,398z"/>
	<path id="XMLID_59_" class="st11" d="M177.5,345.4c0,0,1,10.4,24.7,10.3c0,0-24.6,5.5-27.3,14.2c0,0-18.7-10.5-10.7-24.4
		C164.3,345.5,170.5,348.5,177.5,345.4z"/>
	<path id="XMLID_58_" class="st11" d="M189,300.4c0,0-1.8-29.3,13.5-34.9c0,0-8.5,30.2-0.2,45.6h-11.7L189,300.4z"/>
	<path id="XMLID_57_" class="st11" d="M177.5,345.4c0,0-11.8-12.1,4.7-18.3c0,0-10.2-14,8.3-16l0.9-10.7l-3.4-6.7
		c0,0-36.6,12.4-35.4,29.2C152.6,322.9,156.2,349,177.5,345.4z"/>
	<path id="XMLID_49_" class="st12" d="M204.1,383.5c0,0-3.5-15-4.9-25.5l-16.9,6.9l-7.3,5.1c0,0-2.4,21.3,5.1,28.1
		C180.1,398,189.3,383.5,204.1,383.5z"/>
	<g id="XMLID_166_">
		<path id="XMLID_8_" class="st13" d="M290.3,512.4c-42.2,0-63.1-14-64.1-14.8l-0.3-0.3c-49.2-50.1-53.2-126.5-53.2-127.3l0-1
			l0.7-0.7c17.1-18.2,40.2-13.5,41.2-13.3l1.7,0.4l0.2,1.8c5,50.3,32.6,79.8,35.8,83c41.6,17.7,106.9-4.6,107.6-4.8
			c1.3-0.4,2.6,0.2,3.1,1.5c0.4,1.3-0.2,2.6-1.5,3.1c-2.8,1-68.1,23.3-111.5,4.5l-0.4-0.2l-0.3-0.3c-1.3-1.2-31.4-30.8-37.4-84.5
			c-5.2-0.6-21.6-1.3-34.2,11.4c0.6,9.1,6.9,77.3,51.6,122.9c2.5,1.6,33.3,20.3,92.7,11.3c1.3-0.2,2.5,0.7,2.7,2
			c0.2,1.3-0.7,2.5-2,2.7C310.6,511.6,299.9,512.4,290.3,512.4z"/>
	</g>
	<g id="XMLID_164_">
		<path id="XMLID_7_" class="st13" d="M213.9,359.7c-0.7,0-1.4-0.3-1.9-0.9c-0.8-1-0.7-2.6,0.4-3.4c0.1-0.1,12.4-10,12.6-21.1
			c0.1-4.8-2.2-9.3-6.7-13.2c-13.4-11.7-31.9-8.8-37-3.3c-1.7,1.7-1.7,3.3,0,5c8.8,9.3,21,8.8,21.2,8.8c1.3-0.1,2.5,1,2.5,2.3
			c0.1,1.3-1,2.5-2.3,2.5c-0.6,0-14.6,0.6-24.9-10.3c-3.4-3.6-3.4-8,0.1-11.6c7.3-7.6,28.4-10.3,43.7,3c5.7,5,8.5,10.7,8.4,17
			c-0.3,13.3-13.8,24.3-14.4,24.7C214.9,359.6,214.4,359.7,213.9,359.7z"/>
	</g>
	<g id="XMLID_162_">
		<path id="XMLID_6_" class="st13" d="M210.7,316c-1.3,0-2.4-1.1-2.4-2.4v-33.1c0-4.6-1.2-11.5-3.5-12.4c-0.5-0.2-2.2-0.4-6.3,3.8
			c-10.9,11.6-7.6,28.9-7.6,29.1c0.3,1.3-0.6,2.6-1.9,2.8c-1.3,0.3-2.6-0.6-2.8-1.9c-0.2-0.8-3.8-19.9,8.8-33.3
			c1.6-1.7,6.6-7,11.6-5c6.2,2.5,6.5,14.5,6.5,16.9v33.1C213.1,314.9,212.1,316,210.7,316z"/>
	</g>
	<g id="XMLID_160_">
		<path id="XMLID_5_" class="st13" d="M170.5,349.4c-2.1,0-4.2-0.4-6.2-1.3c-8.1-3.5-11.6-13-11.7-13.4c-3-8.1-2.6-15.6,1.1-22.3
			c8.7-15.7,32.9-20.9,33.9-21.1c1.3-0.3,2.6,0.6,2.9,1.9c0.3,1.3-0.6,2.6-1.9,2.9c-0.2,0-23,5-30.7,18.8c-3,5.4-3.2,11.5-0.8,18.3
			c0,0.1,2.9,8,9.1,10.6c3.1,1.3,6.5,1.1,10.3-0.6c1.2-0.5,2.6,0,3.2,1.2c0.5,1.2,0,2.6-1.2,3.2C175.7,348.8,173,349.4,170.5,349.4z
			"/>
	</g>
	<g id="XMLID_156_">
		<path id="XMLID_4_" class="st13" d="M175,372.3c-0.5,0-0.9-0.1-1.4-0.4c-17-11.7-11.7-27.1-11.6-27.3c0.5-1.3,1.8-1.9,3.1-1.4
			c1.3,0.5,1.9,1.8,1.4,3.1c-0.2,0.5-4,12.1,9.8,21.6c1.1,0.8,1.4,2.3,0.6,3.4C176.5,372,175.7,372.3,175,372.3z"/>
	</g>
	<g id="XMLID_150_">
		<path id="XMLID_3_" class="st13" d="M179.6,403.3c-0.3,0-0.7-0.1-1-0.2c-1.2-0.6-1.8-2-1.2-3.2c0.4-0.9,10.1-21.7,41.7-18.5
			c1.3,0.1,2.3,1.3,2.2,2.6c-0.1,1.3-1.3,2.3-2.6,2.2c-28-2.8-36.5,14.9-36.8,15.7C181.3,402.8,180.5,403.3,179.6,403.3z"/>
	</g>
</g>
<g id="Body">
	<path id="XMLID_84_" class="st10" d="M452,417.7c0,0-53.2-6-101.7,25.5c0,0-39.2,35.6-31.1,155.5h185.7
		C504.8,598.7,507.2,464.5,452,417.7z"/>
	<path id="XMLID_83_" class="st14" d="M411.2,419.9c0,0,51.9,57,8.1,178.8h85.6V557c0,0-15.2-112.5-52.9-139.3
		C452,417.7,432.5,412.9,411.2,419.9z"/>
	<g id="XMLID_176_">
		<path id="XMLID_177_" class="st13" d="M507.1,601.1H317l-0.2-2.2c-11.3-117.4,31.2-156.9,33-158.6l0.5-0.3
			c66.7-34.9,101-25,102.4-24.6l0.6,0.2l0.5,0.5c59.3,67.2,53.5,181.5,53.5,182.7L507.1,601.1z M321.4,596.3h181.2
			c0.5-16.3,1-115.8-51.9-176.4c-4.8-1.1-38.1-7-97.8,24.3C349.7,447.2,311.4,487.2,321.4,596.3z"/>
	</g>
</g>
<g id="Table">
	<g id="XMLID_171_">
		<path id="XMLID_63_" class="st15" d="M238.4,570.2h-15.4l-26.3,28.5l305.8-0.1v-17c0,0-68.9-0.3-90.5-21.9v21.1h-173L238.4,570.2z
			"/>
		<rect id="XMLID_62_" x="196.8" y="598.7" class="st16" width="308" height="16.1"/>
		<rect id="XMLID_61_" x="196.8" y="614.8" class="st17" width="308" height="43.1"/>
		<path id="XMLID_46_" class="st18" d="M328,598.7c0,0,33.6-2.1,53.8,16.1h-185v-16.1H328z"/>
		<path id="XMLID_45_" class="st19" d="M362.1,614.8c0,0-42.8,6.8-36.7,43.4H196.8v-43.4H362.1z"/>
		<path id="XMLID_44_" class="st20" d="M313,598.7c0,0,129.1-7.5,100.5-28.5H264.8l-25.6,0h-16.1l-23.9,25.9L313,598.7z"/>
		<g id="XMLID_230_">
			<path id="XMLID_38_" class="st13" d="M504.8,660.6c-1.3,0-2.4-1.1-2.4-2.4v-57.1H199.2v55.4c0,1.3-1.1,2.4-2.4,2.4
				s-2.4-1.1-2.4-2.4v-60.2h312.9v62C507.3,659.5,506.2,660.6,504.8,660.6z"/>
		</g>
		<g id="XMLID_226_">
			<path id="XMLID_36_" class="st13" d="M196.8,601.1c-0.6,0-1.2-0.2-1.6-0.6c-1-0.9-1-2.4-0.1-3.4l27-29.3h16.4
				c1.3,0,2.4,1.1,2.4,2.4c0,1.3-1.1,2.4-2.4,2.4h-14.3l-25.5,27.7C198.1,600.8,197.5,601.1,196.8,601.1z"/>
		</g>
	</g>
	<g id="XMLID_228_">
		<path id="XMLID_37_" class="st13" d="M504.8,616.3h-308c-0.8,0-1.5-0.7-1.5-1.5s0.7-1.5,1.5-1.5h308c0.8,0,1.5,0.7,1.5,1.5
			S505.7,616.3,504.8,616.3z"/>
	</g>
</g>
<g id="Neck">
	<path id="XMLID_82_" class="st9" d="M359.1,427.4l5.7,10.8c0,0,26.3,21.9,44.8-13.7l-1.2-12.4C408.4,412.1,375.7,408.6,359.1,427.4
		z"/>
	<g id="XMLID_154_">
		<path id="XMLID_9_" class="st13" d="M381.9,448.1c-8.6,0-14-4.9-17.4-8c-0.8-0.8-2-1.8-2.4-1.9l-0.9-0.4l-0.6-1l-3.7-8.5
			c-0.5-1.2,0-2.6,1.2-3.2c1.2-0.5,2.6,0,3.2,1.2l3.3,7.6c1,0.6,1.9,1.4,3.1,2.5c4.6,4.2,11.6,10.5,25.3,3.8
			c17.3-8.5,13.9-20.1,13.8-20.6l-0.1-0.5l-0.7-6.9c-0.1-1.3,0.8-2.5,2.1-2.7c1.3-0.2,2.5,0.8,2.7,2.1l0.7,6.7
			c0.6,2.3,3.3,16.6-16.3,26.1C390.1,447.1,385.7,448.1,381.9,448.1z"/>
	</g>
</g>
<g id="Head_7_">
	<polyline id="XMLID_445_" class="st9" points="414.5,412.1 449.6,402.3 463.8,395.6 474.6,381.1 476.8,354.3 471.3,334.6 
		481.3,327.9 485.3,315 483,306.7 472.1,294.7 461.8,300.5 459.1,290.6 448.9,304.2 436.7,312.8 405.5,305.1 361.1,292.5 
		318.5,289.9 284.2,294.9 253.8,305.5 248.7,322.5 249.8,340.1 259.6,367.6 263.3,379.8 267.6,393.6 269.3,399.3 272.7,408.7 
		277.8,418.6 294.2,437.5 307.7,439.8 337.6,433.4 371.1,424.1 	"/>
	<polygon id="XMLID_444_" class="st21" points="251.8,347 232.4,338.8 225.2,321.7 231.8,300.2 236.6,293.2 231,277.5 230,260.9 
		235.9,244.1 250.6,229.6 266.6,222 275.7,204 284.4,193.8 302.5,184.7 318.9,181.6 340,189.5 353.9,180.9 371.5,176.8 382.6,178.7 
		394.9,186.3 408.6,206.3 434.3,209.6 450.4,221.1 459.1,236.5 462.6,261.7 478.7,268.7 488.3,285.5 486.9,309.5 475,297.8 
		461.5,297.8 458,286.6 448.9,304.2 436.6,312.8 405.5,305.1 365.1,292.2 327.1,290.4 287.5,294.5 253.7,305.5 250.2,317.2 	"/>
	<path id="XMLID_443_" class="st22" d="M232.7,282.5c0,0-1.5-40.6,34.5-51.6l1.2-9.6l-13.8,6l-14.8,11.5l-4.9,7.9l-3.5,7l-3.7,13.6
		L232.7,282.5z"/>
	<path id="XMLID_438_" class="st22" d="M270.7,239.6c0,0,4.2-56.2,66.7-51l-15.4-5.8l-16.4,1.4l-21.2,9.7l-10.8,13.6l-5.1,13.9
		L270.7,239.6z"/>
	<path id="XMLID_436_" class="st22" d="M340,189.5c0,0,44.3-19.7,65.9,18.3l-5.3-14.9l-15.2-14.4l-20.9-1.6l-10.8,4L340,189.5z"/>
	<path id="XMLID_434_" class="st22" d="M408.6,206.3c0,0,41.8,7.5,53.9,55.4l0.6-20.5l-14.4-25.4l-19.3-7.5L408.6,206.3z"/>
	<path id="XMLID_432_" class="st22" d="M475,297.8c0,0,12.6-7.2-12.4-36c0,0,29.7,6.7,24.6,44.6L475,297.8z"/>
	<path id="XMLID_430_" class="st22" d="M283.8,260c0,0,38.5-28.6,65.9-24.2l-21.6-7.6l-20.3,7.1L291,249.3L283.8,260z"/>
	<path id="XMLID_428_" class="st22" d="M349.8,235.8c0,0-12.8-16.8,15.5-27l-14.9,0.9l-10.5,9l-6.1,9.2L349.8,235.8z"/>
	<path id="XMLID_426_" class="st23" d="M253.7,305.5c0,0,51-48.2,143.8-14.7c0,0,39.1,22,57.8-8.7l3.6,8.6l-12.8,16.7l-9.6,5.5
		l-25.6-5.6l-33-10.7l-27.7-5.6l-41.6,1.4L253.7,305.5z"/>
	<path id="XMLID_425_" class="st24" d="M293.8,433.4l152.9-43.9c0,0,31.4-11.1,27.4-44.7c0,0,14.2,37.8-10.3,50.9l-49.3,16.4
		L312,441.8l-11.3-4.1L293.8,433.4z"/>
	<path id="XMLID_424_" class="st24" d="M280.8,344.8c0,0,19.7-24.8,39.9-35.2C320.7,309.6,281.1,305,280.8,344.8z"/>
	<path id="XMLID_423_" class="st24" d="M254.9,349c0,0,0.5-30.9,13-35.5c0,0,58-29.6,140-4.5c0,0-69.4-41.3-154.2-3.5
		C253.7,305.5,241.5,328.5,254.9,349z"/>
	<path id="XMLID_422_" class="st24" d="M417.3,309.4c0,0,36.9,21,48.8,6.9l-8.2-29.7l-6.4,13.4l-14.9,12.8L417.3,309.4z"/>
	<path id="XMLID_421_" class="st25" d="M280.8,344.8c0,0-19.8-46.3,39.9-35.2C320.7,309.6,287,306.1,280.8,344.8z"/>
	
		<ellipse id="XMLID_420_" transform="matrix(0.9618 -0.2739 0.2739 0.9618 -79.0051 125.78)" class="st25" cx="411" cy="345.9" rx="13.4" ry="6"/>
	
		<ellipse id="XMLID_419_" transform="matrix(0.9618 -0.2739 0.2739 0.9618 -89.8086 101.6487)" class="st25" cx="319.2" cy="372.5" rx="13.4" ry="6"/>
	<path id="XMLID_418_" class="st25" d="M358.3,367c0,0-4.1-14.5-0.9-34.1l13.4,39L358.3,367z"/>
	<g id="XMLID_416_">
		<path id="XMLID_417_" class="st26" d="M313.6,442.3c-2.6,0.2-5.2,0.2-7.7,0.1l-1.6,0c-25.8-0.3-33.9-29.5-34.3-30.7l-13.3-43.2
			l-9.2-33.1c-3.3-12.1-2.2-22.1,3.7-31.4c0.9-1.4,2.6-1.8,4-0.9c1.4,0.9,1.8,2.6,0.9,4c-5,8-5.9,16.3-3,26.8l9.2,33l13.3,43.3
			c0.1,0.4,7.4,26.3,28.7,26.5l1.7,0c4.5,0.1,8.7,0.1,12.9-1l129.9-36.1c19.2-5.3,30.4-25.3,25.1-44.4l-21.3-76.6
			c-5.3-19.2-25.3-30.4-44.4-25.1c-1.6,0.4-3.2-0.5-3.6-2c-0.4-1.5,0.5-3.2,2-3.6c22.3-6.2,45.4,6.9,51.6,29.2l21.3,76.6
			c6.2,22.3-6.9,45.4-29.2,51.6l-129.9,36.1C318.1,441.8,315.9,442.2,313.6,442.3z"/>
	</g>
	<g id="XMLID_414_">
		<path id="XMLID_415_" class="st26" d="M471.4,337.5c-1.4,0.1-2.6-0.8-3-2.1c-0.4-1.5,0.5-3.2,2-3.6c4.2-1.2,7.7-3.9,9.9-7.7
			c2.1-3.8,2.7-8.2,1.5-12.4c-1.2-4.2-3.9-7.7-7.7-9.9c-3.8-2.2-8.2-2.7-12.4-1.5c-1.5,0.4-3.2-0.5-3.6-2c-0.4-1.5,0.5-3.2,2-3.6
			c5.7-1.6,11.7-0.9,16.8,2.1c5.2,2.9,8.9,7.7,10.5,13.4c1.6,5.7,0.9,11.7-2.1,16.8c-2.9,5.2-7.7,8.9-13.4,10.5
			C471.8,337.4,471.6,337.5,471.4,337.5z"/>
	</g>
	<g id="XMLID_412_">
		<path id="XMLID_413_" class="st26" d="M435,315.8c-7.4,0.5-16.1-2.7-27.2-6.7c-11.3-4.2-25.3-9.3-44-13.1
			c-60.6-12.3-108.3,11.8-108.8,12.1c-1.4,0.7-3.2,0.2-3.9-1.2c-0.7-1.4-0.2-3.2,1.2-3.9c2-1,50-25.3,112.6-12.6
			c19.1,3.9,33.4,9.1,44.8,13.4c12.2,4.5,21.1,7.8,27.6,6c6.4-1.8,11.7-9,17.7-24.3c0.6-1.5,2.3-2.2,3.8-1.6
			c1.5,0.6,2.2,2.3,1.6,3.8C452.5,307.9,444.9,315.1,435,315.8z"/>
	</g>
	<g id="XMLID_410_">
		<path id="XMLID_411_" class="st26" d="M484.9,313.8c-0.4,0-0.9,0-1.3-0.2c-1.5-0.6-2.2-2.3-1.6-3.8c4.3-10.6,4.6-19.9,1-27.6
			c-6-12.8-21.1-17.6-21.2-17.6l-2.1-0.6l0-2.2c0.3-18.7-4.5-32.7-14.4-41.6c-14.7-13.3-36.1-10.9-36.3-10.9l-2.1,0.3l-0.9-1.9
			c-7.4-15.8-17-25-28.3-27.3c-18.2-3.8-35.5,11.3-35.7,11.4l-1.7,1.5l-1.9-1.2c-20.5-13.3-40.3-2.4-40.5-2.3l-0.2,0.1
			c-34.7,16.2-25,47.1-24.6,48.4c0.5,1.5-0.3,3.2-1.9,3.7c-1.5,0.5-3.2-0.3-3.7-1.8c-0.1-0.4-11.8-37.1,27.6-55.5
			c1.9-1,22.5-11.8,44.6,1.4c5.2-4,21.3-15,39-11.4c12.8,2.6,23.4,12.3,31.6,28.7c6.2-0.3,24.7-0.2,38.7,12.5
			c10.8,9.8,16.3,24.5,16.4,44c4.9,1.9,16.9,7.7,22.7,19.9c4.4,9.3,4.2,20.2-0.8,32.4C486.9,313,485.9,313.7,484.9,313.8z"/>
	</g>
	<g id="XMLID_408_">
		<path id="XMLID_409_" class="st26" d="M283.7,262.4c-0.5,0-1.1-0.1-1.6-0.3c-1.4-0.8-1.9-2.5-1.2-3.9c0.2-0.4,24.4-43.5,68.6-27
			c1.5,0.6,2.3,2.2,1.7,3.7c-0.6,1.5-2.2,2.3-3.7,1.7c-16.6-6.2-31.9-4-45.7,6.5c-10.4,7.9-15.8,17.8-15.9,17.9
			C285.6,261.8,284.7,262.4,283.7,262.4z"/>
	</g>
	<g id="XMLID_406_">
		<path id="XMLID_407_" class="st26" d="M334.8,233.4c-0.3,0-0.5,0-0.8-0.1c-1.6-0.3-2.6-1.9-2.3-3.4c2.1-10.2,12-28.4,34-23.9
			c1.6,0.3,2.6,1.9,2.3,3.4c-0.3,1.6-1.9,2.6-3.4,2.3c-22-4.5-27,18.4-27.2,19.4C337.2,232.4,336.1,233.3,334.8,233.4z"/>
	</g>
	<g id="XMLID_404_">
		<path id="XMLID_405_" class="st26" d="M393.1,284.7c-0.3,0-0.7,0-1-0.2c-54.5-23.7-96.9-5.1-97.4-5c-1.1,0.5-2.4,0-2.9-1.1
			c-0.5-1.1,0-2.4,1.1-2.9c1.8-0.8,44.7-19.5,100.9,4.9c1.1,0.5,1.6,1.8,1.1,2.9C394.6,284.2,393.9,284.6,393.1,284.7z"/>
	</g>
	<g id="XMLID_402_">
		<path id="XMLID_403_" class="st26" d="M282.5,223.7c-0.3,0-0.6,0-1-0.2c-1.1-0.4-1.6-1.7-1.2-2.8c0.1-0.3,13.3-32.2,47.5-26.2
			c1.2,0.2,2,1.3,1.8,2.5c-0.2,1.2-1.3,2-2.5,1.8c-30.7-5.3-42.3,22.4-42.8,23.6C284,223.2,283.3,223.7,282.5,223.7z"/>
	</g>
	<g id="XMLID_400_">
		<path id="XMLID_401_" class="st26" d="M451.9,249.8c-1,0.1-1.9-0.5-2.2-1.5c-9.8-28.5-32.2-26.4-33.2-26.3
			c-1.2,0.1-2.3-0.7-2.4-1.9c-0.1-1.2,0.7-2.3,1.9-2.4c0.3,0,26.8-2.6,37.7,29.3c0.4,1.1-0.2,2.4-1.3,2.8
			C452.3,249.8,452.1,249.8,451.9,249.8z"/>
	</g>
	<g id="XMLID_398_">
		<path id="XMLID_399_" class="st26" d="M475.8,313c-0.7,0-1.4-0.2-1.8-0.8c-1.4-1.7-2.7-2.6-4.2-2.6c-2.3-0.1-4.1,1.9-4.1,1.9
			c-0.8,0.9-2.2,0.9-3.1,0.1c-0.9-0.8-1-2.2-0.2-3c0.1-0.1,3.2-3.5,7.4-3.4c2.7,0.1,5.2,1.5,7.4,4.2c0.8,0.9,0.6,2.3-0.3,3
			C476.7,312.9,476.3,313,475.8,313z"/>
	</g>
	<g id="XMLID_396_">
		<path id="XMLID_397_" class="st26" d="M407.6,291.6c-0.4,0-0.8,0-1.1-0.2l-6.3-3.2c-1.1-0.5-1.5-1.8-1-2.9c0.5-1.1,1.8-1.5,2.9-1
			l6.3,3.2c1.1,0.5,1.5,1.8,1,2.9C409,291.1,408.4,291.5,407.6,291.6z"/>
	</g>
	<g id="XMLID_394_">
		<path id="XMLID_395_" class="st26" d="M409.1,222.2C409.1,222.2,409.1,222.2,409.1,222.2l-6.8,0.5c-1.2,0.1-2.2-0.8-2.3-2
			c-0.1-1.2,0.8-2.2,2-2.3l6.8-0.5c1.2-0.1,2.2,0.8,2.3,2C411.2,221.1,410.3,222.1,409.1,222.2z"/>
	</g>
	<g id="XMLID_392_">
		<path id="XMLID_393_" class="st26" d="M252,349.9c-0.4,0-0.8,0-1.2-0.2c-15.8-6-25.1-14.4-27.6-25.1c-3.2-14,6.2-27.2,9.9-31.7
			c-7.7-15-9.1-28.9-4.2-41.3c8.9-22.7,35.6-31.9,36.7-32.3c1.5-0.5,3.2,0.3,3.7,1.8c0.5,1.5-0.3,3.2-1.8,3.7l0,0
			c-0.3,0.1-25.3,8.8-33.2,28.9c-4.4,11.2-2.8,24.1,4.9,38.2l1,1.8l-1.4,1.5c-0.1,0.1-13.1,14.2-9.9,28c2,8.7,10.1,15.8,23.9,21
			c1.5,0.6,2.3,2.2,1.7,3.7C254.1,349.1,253.1,349.8,252,349.9z"/>
	</g>
	<g id="XMLID_390_">
		<path id="XMLID_391_" class="st26" d="M242.5,284.4c-0.9,0.1-1.8-0.5-2.2-1.4c-0.1-0.3-11.2-29.8,16.4-44.5
			c1.1-0.6,2.4-0.2,2.9,0.9c0.6,1.1,0.2,2.4-0.9,2.9c-24.3,13-14.8,38.1-14.4,39.2c0.4,1.1-0.1,2.4-1.2,2.8
			C242.9,284.4,242.7,284.4,242.5,284.4z"/>
	</g>
</g>
<g id="Face">
	<g id="Face_6_">
		<g id="XMLID_388_">
			<path id="XMLID_389_" class="st26" d="M368.7,375.1c-2.3,0.2-4.6-0.2-6.6-1c-3.2-1.3-5.5-3.8-6.3-6.8c-0.4-1.5,0.5-3.2,2-3.6
				c1.5-0.4,3.2,0.5,3.6,2c0.5,1.7,2,2.6,2.9,3c1.8,0.7,4,0.8,6.1,0.2c2.1-0.6,4-1.8,5.1-3.3c0.6-0.8,1.5-2.3,1-4.1
				c-0.4-1.5,0.5-3.2,2-3.6c1.5-0.4,3.2,0.5,3.6,2c0.8,3,0.1,6.3-1.9,9.1c-1.9,2.6-4.8,4.5-8.2,5.5
				C370.8,374.9,369.8,375,368.7,375.1z"/>
		</g>
		<g id="Face_7_">
			<g id="XMLID_384_">
				<path id="XMLID_386_" class="st26" d="M281,348.4c-0.1,0-0.2,0-0.2,0c-1.9,0-3.5-1.5-3.5-3.4c0-0.7,0-17.5,11.9-28.9
					c7.6-7.3,18.3-10.6,31.6-9.9c1.9,0.1,3.4,1.7,3.3,3.7c-0.1,1.9-1.8,3.4-3.7,3.3c-11.4-0.6-20.3,2.1-26.5,8
					c-9.8,9.3-9.8,23.7-9.8,23.8C284.2,346.7,282.8,348.2,281,348.4z"/>
			</g>
			<g id="XMLID_372_">
				<circle id="XMLID_374_" class="st26" cx="400.9" cy="337.5" r="8.4"/>
			</g>
			<path id="XMLID_370_" class="st26" d="M321.8,397.4c0,0,19.4,18.3,39,4.7s6.9-19-9.3-18.8C340.9,383.5,304.4,378.5,321.8,397.4z"
				/>
		</g>
	</g>
	<g id="XMLID_376_">
		<path id="XMLID_378_" class="st27" d="M302.1,371.9c-0.6,0.2-1.3,0.1-1.9-0.3c-1.2-0.7-1.6-2.3-0.8-3.4
			c5.2-8.6,15.2-12.1,21.7-13.5c-11.3-6.7-25.4-6-25.6-6c-1.4,0.1-2.6-1-2.6-2.4c-0.1-1.4,1-2.6,2.4-2.6c0.8,0,20.7-1,33.9,10.7
			l4.6,4.1l-6.1,0.3c-0.2,0-17.3,1-24,12C303.2,371.4,302.7,371.8,302.1,371.9z"/>
	</g>
</g>
<g id="Microscope">
	<g id="XMLID_165_">
		<polygon id="XMLID_78_" class="st28" points="240.5,559.6 240.5,580.8 413.4,580.8 413.4,559.6 		"/>
		<path id="XMLID_77_" class="st28" d="M312.4,559.6c0,0-8.1-42.4,11.1-56.9c0,0,50-8.3,53.1-69c0,0,17.1-5.7,17.5-10.8
			c0,0,32.9,43.2-6.1,93.9c0,0-4.6,27.5,5.3,40.6L312.4,559.6z"/>
		<polygon id="XMLID_74_" class="st29" points="389.2,429.6 394.1,422.9 393.2,412 387.7,405.8 380.7,403.9 372.3,406.7 
			368.8,410.7 366.9,417.7 368.8,426.5 381.3,432.5 		"/>
		<polygon id="XMLID_73_" class="st28" points="285.8,467.3 370.9,347.9 380.7,348.2 389.2,353.4 395.7,365.6 309.2,490.2 
			308.5,480.3 302.7,472.2 296.8,470.2 285.8,470.2 		"/>
		<polygon id="XMLID_72_" class="st30" points="252.8,557.6 252.8,545.6 260.9,539.7 270.6,539.7 276.5,543.4 281.2,559.6 		"/>
		<polygon id="XMLID_71_" class="st28" points="378.5,389.7 363.4,412.1 372.3,406.7 380.7,403.9 387.7,405.8 389.2,399.6 
			383.1,392 		"/>
		<polygon id="XMLID_70_" class="st29" points="291.3,467.3 282.8,471.5 281.2,476.4 285.8,486.8 294,492.1 302.5,492.1 308.9,486 
			308.5,480.3 302.7,472.2 		"/>
		<polygon id="XMLID_56_" class="st29" points="304.2,474.3 391.4,355.7 395.7,365.6 308.9,486 308.5,480.3 		"/>
		<polygon id="XMLID_55_" class="st31" points="299.3,467.3 383.1,350.6 370.9,347.9 285.8,470.2 291.3,467.3 296.8,470.2 		"/>
		<path id="XMLID_54_" class="st29" d="M385.2,432.1c0,0,9.9,63.9-55.8,81.5c0,0-9.2,23.4,9.9,47.1l-26.8-1.1
			c0,0-6.7-45.3,11.1-56.9c0,0,57.7-14.5,53.1-71.9l4.6,1.6"/>
		<path id="XMLID_53_" class="st31" d="M391.4,428.9c0,0,14.7,32.9,4.6,75.9c0,0,27.4-35.3-2-81.8L391.4,428.9z"/>
		<circle id="XMLID_52_" class="st31" cx="380.7" cy="417.9" r="5.8"/>
		<path id="XMLID_51_" class="st32" d="M252.8,549.7h25.9v9.8h-25.9C252.8,559.4,252.8,553.7,252.8,549.7z"/>
		<path id="XMLID_50_" class="st31" d="M302.1,561.4c0,0,16.3,9.5,18.9,17.8l-80.5,1.6v-21.1L302.1,561.4z"/>
		<path id="XMLID_48_" class="st33" d="M309.2,559.6c0,0,17.2,8.2,25.2,20.3h6.3c0,0,1.7-11.7-21.3-20.5L309.2,559.6z"/>
		<polygon id="XMLID_47_" class="st34" points="240.5,580.8 247.3,567.2 302.1,561.4 240.5,559.6 		"/>
		<g id="XMLID_212_">
			<g id="XMLID_219_">
				<g id="XMLID_224_">
					<path id="XMLID_35_" class="st13" d="M307.5,491.6c-0.5,0-1-0.1-1.4-0.4c-1.1-0.8-1.3-2.3-0.6-3.4L393,365.1
						c-5.4-16.6-17.5-15.6-20.7-15.1l-87.6,122.9c-0.8,1.1-2.3,1.3-3.4,0.6c-1.1-0.8-1.3-2.3-0.6-3.4l88.6-124.3l0.8-0.2
						c0.2-0.1,20.5-5.4,27.7,19.3l0.3,1.1l-0.7,1l-88.1,123.6C309,491.2,308.3,491.6,307.5,491.6z"/>
				</g>
				<g id="XMLID_220_">
					<path id="XMLID_221_" class="st13" d="M299.2,495.4c-4,0-8.2-1.4-11.9-4.1c-7.9-5.6-10.8-15.2-6.5-21.2
						c4.3-6.1,14.3-6.4,22.2-0.7s10.8,15.2,6.5,21.2c-2.2,3.1-5.8,4.8-10.1,4.8C299.3,495.4,299.3,495.4,299.2,495.4z M291.1,470.2
						c-2.7,0-5,0.9-6.3,2.8c-2.7,3.8-0.2,10.4,5.4,14.5c2.9,2.1,6.1,3.3,9.2,3.2c2.8,0,5-1,6.2-2.8c2.7-3.8,0.2-10.4-5.4-14.5
						C297.3,471.2,294,470.2,291.1,470.2z"/>
				</g>
			</g>
			<g id="XMLID_217_">
				<path id="XMLID_32_" class="st13" d="M353.5,427.1c-1.1,0-2.1-0.7-2.3-1.8c-4.3-17.2-21.5-15.9-22.2-15.8
					c-1.4,0.2-2.5-0.9-2.6-2.2c-0.1-1.3,0.9-2.5,2.2-2.6c0.2,0,22.1-1.7,27.3,19.5c0.3,1.3-0.5,2.6-1.8,2.9
					C353.9,427.1,353.7,427.1,353.5,427.1z"/>
			</g>
			<g id="XMLID_215_">
				<path id="XMLID_31_" class="st13" d="M311.7,468.8c-0.3,0-0.6-0.1-0.9-0.3c-0.7-0.5-0.8-1.4-0.4-2.1l10.1-14.1
					c0.5-0.7,1.4-0.8,2.1-0.4c0.7,0.5,0.8,1.4,0.4,2.1L313,468.2C312.7,468.6,312.2,468.8,311.7,468.8z"/>
			</g>
			<g id="XMLID_213_">
				<path id="XMLID_30_" class="st13" d="M326.7,447.9c-0.3,0-0.6-0.1-0.9-0.3c-0.7-0.5-0.8-1.4-0.4-2.1l16.4-23.1
					c0.5-0.7,1.4-0.8,2.1-0.4c0.7,0.5,0.8,1.4,0.4,2.1l-16.4,23.1C327.6,447.6,327.1,447.9,326.7,447.9z"/>
			</g>
		</g>
		<g id="XMLID_208_">
			<path id="XMLID_209_" class="st13" d="M415.9,583.2H238.1v-26h177.8V583.2z M242.9,578.3H411V562H242.9V578.3z"/>
		</g>
		<g id="XMLID_206_">
			<path id="XMLID_27_" class="st13" d="M278.7,562c-1.3,0-2.4-1.1-2.4-2.4v-13.1c-1.3-1.4-5.2-5.1-10.2-5.3
				c-3.7-0.1-7.3,1.7-10.9,5.4v13c0,1.3-1.1,2.4-2.4,2.4s-2.4-1.1-2.4-2.4v-14.9l0.6-0.7c4.8-5.3,9.8-7.8,15.3-7.6
				c8.4,0.3,14.1,7.4,14.3,7.7l0.5,0.7v14.8C281.1,560.9,280,562,278.7,562z"/>
		</g>
		<g id="XMLID_204_">
			<path id="XMLID_26_" class="st13" d="M278.7,550.7h-25.9c-0.8,0-1.5-0.7-1.5-1.5c0-0.8,0.7-1.5,1.5-1.5h25.9
				c0.8,0,1.5,0.7,1.5,1.5C280.2,550.1,279.5,550.7,278.7,550.7z"/>
		</g>
		<g id="XMLID_202_">
			<path id="XMLID_25_" class="st13" d="M341.8,582.3c-0.8,0-1.4-0.6-1.5-1.3c-1.9-14.2-23.5-19.8-23.8-19.9c-0.8-0.2-1.3-1-1.1-1.9
				c0.2-0.8,1-1.3,1.9-1.1c1,0.2,23.9,6.2,26,22.4c0.1,0.8-0.5,1.6-1.3,1.7C341.9,582.3,341.9,582.3,341.8,582.3z"/>
		</g>
		<g id="XMLID_200_">
			<path id="XMLID_24_" class="st13" d="M321.7,582.3c-0.8,0-1.4-0.6-1.5-1.3c-1.9-14.2-23.5-19.8-23.8-19.9c-0.8-0.2-1.3-1-1.1-1.9
				c0.2-0.8,1-1.3,1.9-1.1c1,0.2,23.9,6.2,26,22.4c0.1,0.8-0.5,1.6-1.3,1.7C321.8,582.3,321.7,582.3,321.7,582.3z"/>
		</g>
		<g id="XMLID_196_">
			<path id="XMLID_197_" class="st13" d="M380.7,433.4c-8.7,0-15.7-7-15.7-15.7s7-15.7,15.7-15.7s15.7,7,15.7,15.7
				S389.3,433.4,380.7,433.4z M380.7,405.8c-6.6,0-11.9,5.3-11.9,11.9s5.3,11.9,11.9,11.9c6.6,0,11.9-5.3,11.9-11.9
				S387.2,405.8,380.7,405.8z"/>
		</g>
		<g id="XMLID_194_">
			<path id="XMLID_21_" class="st13" d="M311.8,562c-1.2,0-2.2-0.8-2.4-2c-0.2-1.4-5.4-33.9,10.2-58.3l0.7-1l1.2-0.1
				c2-0.1,48.8-3.8,52.7-67c0.1-1.3,1.2-2.3,2.6-2.3c1.3,0.1,2.3,1.2,2.3,2.6c-3.8,61.6-47.8,70.3-55.9,71.4
				c-13.9,22.7-9,53.6-8.9,54c0.2,1.3-0.7,2.6-2,2.8C312,562,311.9,562,311.8,562z"/>
		</g>
		<g id="XMLID_192_">
			<path id="XMLID_20_" class="st13" d="M394.5,562c-0.7,0-1.5-0.3-2-1c-13-17.7-7-44.8-6.7-46l0.1-0.6l0.4-0.4
				c37.5-45,7.5-86.4,6.2-88.1c-0.8-1.1-0.6-2.6,0.5-3.4c1.1-0.8,2.6-0.6,3.4,0.5c0.3,0.5,33.4,45.8-6,93.6
				c-0.8,3.8-4.7,26.8,6,41.5c0.8,1.1,0.6,2.6-0.5,3.4C395.5,561.9,395,562,394.5,562z"/>
		</g>
		<g id="XMLID_181_">
			<path id="XMLID_15_" class="st13" d="M387.2,406.3c0,0-0.1,0-0.1,0c-1.3-0.1-2.4-1.2-2.3-2.5c0.2-4.6-0.6-7.9-2.3-9.3
				c-1.5-1.2-3.3-0.7-3.4-0.6c-1.3,0.3-2.6-0.4-3-1.6c-0.4-1.3,0.3-2.6,1.6-3c1.6-0.5,5-0.7,7.7,1.4c3.1,2.4,4.5,6.9,4.2,13.3
				C389.6,405.3,388.5,406.3,387.2,406.3z"/>
		</g>
	</g>
	<g id="XMLID_190_">
		<path id="XMLID_19_" class="st13" d="M407.7,466.3c-0.6,0-1.1-0.3-1.4-0.8c-10.2-19.6-30.7-16.2-30.9-16.2
			c-0.8,0.2-1.6-0.4-1.8-1.2c-0.1-0.8,0.4-1.6,1.2-1.8c0.2,0,22.9-3.8,34.1,17.8c0.4,0.7,0.1,1.7-0.7,2.1
			C408.2,466.2,407.9,466.3,407.7,466.3z"/>
	</g>
</g>
<g id="Right_Arm">
	<path id="XMLID_79_" class="st6" d="M453.3,417.7c0,0,10.9,65.1,32.1,79.8l-12.3,6.3l-11.7,6.9l-15.2,10.9l-15.3,1.7l-10.4,1.6
		c0,0,11.6,9.2,0,32.6c0,0,72.3,27.2,121.4-37.3C542,520.1,542.2,423.6,453.3,417.7z"/>
	<path id="XMLID_76_" class="st9" d="M420.6,524.8c0,0,13.6,10.2,0,32.6c0,0-22.8,29.3-58.8,11.5c0,0-35-25.1-3.1-28.9
		c0,0,13.5,17.8,31.9-0.2c0,0,9.6-25.3-16.4-26.1l-8.5-0.2c0,0-18.8-4.8-1.4-9.9C364.3,503.6,399.4,492.4,420.6,524.8z"/>
	<path id="XMLID_69_" class="st7" d="M424.8,546.8c0,0,60.9,9.9,117.2-26.7c0,0-35.1,60.5-121.4,37.3l3.2-7.7"/>
	<path id="XMLID_67_" class="st10" d="M425.9,526.1l20.3-4.5c0,0,15.7,15.5,2.3,39.2c0,0-16.9,3-28-3.3
		C420.6,557.4,426,542.5,425.9,526.1z"/>
	<path id="XMLID_66_" class="st8" d="M457.9,439.3c0,0,54.5-9.4,83.4,70.6c0,0-3.5-85.2-88-92.2
		C453.3,417.7,452.7,431.4,457.9,439.3z"/>
	<path id="XMLID_65_" class="st8" d="M450.8,528.3c0,0,8.3-0.8,20.1-12.8c11.8-12,17.9-18.8,17.9-18.8l-15.7,7.1l-11.7,6.9
		l-15.2,10.9L450.8,528.3z"/>
	<path id="XMLID_64_" class="st12" d="M452.7,548.1c0,0-13.5,3.5-27.3-5.2l-4.8,14.5l25.7,4.9L452.7,548.1z"/>
	<path id="XMLID_60_" class="st11" d="M381.9,546.8c0,0,26.7,7.6,42.7-8.6l-0.9,11.5l-3.2,7.7l-9.6,8.7l-19.5,9.6
		c0,0-31.2,1.3-45.7-24.7v-4.9l10.6-6.7C356.3,539.4,368.2,553.2,381.9,546.8z"/>
	<g id="XMLID_172_">
		<path id="XMLID_173_" class="st13" d="M456.2,565.1c-11.1,0-23.2-1.6-36.3-5.4l-3-0.9l1.5-2.7c0.1-0.2,9.2-16.3,2.9-26.6
			c-0.9-1.4-0.9-3.1-0.1-4.6c0.8-1.5,2.3-2.4,4-2.5c6.5-0.3,19.1-2,30-10.7c11.1-8.8,20.3-13.2,25.4-15.2
			c-7.2-7.1-23.7-28.5-29.7-78.6l-0.3-2.7l2.7,0c0,0,0,0,0,0c1.9,0,81.5,1,91.1,104.6l0.1,0.9l-0.5,0.7
			C543.6,522,513.7,565.1,456.2,565.1z M424,555.9c71.5,19.2,110.7-30,115.5-36.4c-8.6-88.3-69.7-98.1-83.5-99.2
			c7.6,58.7,30.4,75.1,30.7,75.3l4.4,3l-5.2,1.3c-0.1,0-12,3.2-27.7,15.7c-11.9,9.5-25.4,11.4-32.6,11.8
			C431.5,537.2,426.7,550.3,424,555.9z"/>
	</g>
	<g id="XMLID_170_">
		<path id="XMLID_10_" class="st13" d="M423.4,530.7c-0.8,0-1.7-0.4-2.1-1.2c-14.8-25.9-47.8-26.1-58.1-23.2
			c-1.6,0.5-2.4,0.9-2.8,1.1c0.8,1,3.7,2.8,6.6,3.9c1.2,0.5,1.9,1.9,1.4,3.1c-0.5,1.2-1.9,1.8-3.1,1.4c-3-1.2-10-4.4-9.8-8.8
			c0.2-3.7,4.9-5,6.4-5.4c14.8-4.1,48.6-0.9,63.6,25.4c0.7,1.2,0.3,2.6-0.9,3.3C424.3,530.6,423.9,530.7,423.4,530.7z"/>
	</g>
	<g id="XMLID_168_">
		<path id="XMLID_16_" class="st13" d="M384.9,577.8c-7.7,0-16.2-2.3-25.1-8.6c-12.4-8.7-17.8-16-16.3-22.3
			c1.8-7.6,12.7-9.5,13.9-9.7c1.3-0.2,2.5,0.7,2.8,2s-0.7,2.6-2,2.8c-2.3,0.4-9.1,2.2-9.9,6c-0.5,2.3,0.6,7.5,14.4,17.2
			c30.5,21.4,55.1-8.2,56.1-9.4c0.8-1,2.4-1.2,3.4-0.4c1,0.8,1.2,2.4,0.4,3.4C422.2,559.2,406.8,577.8,384.9,577.8z"/>
	</g>
	<g id="XMLID_152_">
		<path id="XMLID_17_" class="st13" d="M447.6,564.7c-0.4,0-0.9-0.1-1.2-0.3c-1.1-0.7-1.5-2.2-0.8-3.3c12.6-21-2.6-38.5-2.8-38.7
			c-0.9-1-0.8-2.5,0.2-3.4c1-0.9,2.5-0.8,3.4,0.2c0.2,0.2,17.7,20.4,3.3,44.4C449.3,564.2,448.5,564.7,447.6,564.7z"/>
	</g>
</g>
<g id="Handle">
	<polygon id="XMLID_75_" class="st29" points="390.5,539.7 391.1,528 388,516.8 377.6,513.6 368.8,513.5 359.8,520.7 356.3,526.6 
		357.1,536.3 362.3,545.3 370.9,547.5 378.5,548.1 	"/>
	<g id="XMLID_183_">
		<g id="XMLID_186_">
			<path id="XMLID_187_" class="st13" d="M373.9,551.2c-11,0-20-9-20-20c0-11,9-20,20-20s20,9,20,20
				C393.9,542.2,384.9,551.2,373.9,551.2z M373.9,516c-8.4,0-15.2,6.8-15.2,15.2c0,8.4,6.8,15.2,15.2,15.2s15.2-6.8,15.2-15.2
				C389,522.8,382.2,516,373.9,516z"/>
		</g>
		<g id="XMLID_184_">
			<circle id="XMLID_39_" class="st13" cx="373.9" cy="531.2" r="5.1"/>
		</g>
	</g>
</g>
<g id="Ground">
	<g id="XMLID_240_">
		<path id="XMLID_43_" class="st13" d="M58.3,660.3H41.9c-1.3,0-2.4-1.1-2.4-2.4c0-1.3,1.1-2.4,2.4-2.4h16.4c1.3,0,2.4,1.1,2.4,2.4
			C60.7,659.2,59.6,660.3,58.3,660.3z"/>
	</g>
	<g id="XMLID_238_">
		<path id="XMLID_42_" class="st13" d="M228.2,660.3H67.5c-1.3,0-2.4-1.1-2.4-2.4c0-1.3,1.1-2.4,2.4-2.4h160.7
			c1.3,0,2.4,1.1,2.4,2.4C230.6,659.2,229.5,660.3,228.2,660.3z"/>
	</g>
	<g id="XMLID_236_">
		<path id="XMLID_18_" class="st13" d="M352,660.6H241.5c-1.3,0-2.4-1.1-2.4-2.4s1.1-2.4,2.4-2.4H352c1.3,0,2.4,1.1,2.4,2.4
			S353.4,660.6,352,660.6z"/>
	</g>
	<g id="XMLID_234_">
		<path id="XMLID_68_" class="st13" d="M375.6,660.6h-14.3c-1.3,0-2.4-1.1-2.4-2.4s1.1-2.4,2.4-2.4h14.3c1.3,0,2.4,1.1,2.4,2.4
			S376.9,660.6,375.6,660.6z"/>
	</g>
	<g id="XMLID_232_">
		<path id="XMLID_157_" class="st13" d="M568,660.6H384.8c-1.3,0-2.4-1.1-2.4-2.4s1.1-2.4,2.4-2.4H568c1.3,0,2.4,1.1,2.4,2.4
			S569.3,660.6,568,660.6z"/>
	</g>
</g>
</svg>
