<?xml version='1.0' encoding='utf-8'?>
<svg xmlns="http://www.w3.org/2000/svg" width="300mm" height="300mm" clip-rule="evenodd" fill-rule="evenodd" image-rendering="optimizeQuality" shape-rendering="geometricPrecision" text-rendering="geometricPrecision" version="1.1" viewBox="0 0 29994 29994"> <defs> <style type="text/css">  .fil1 {fill:rgb(125,220,245)} .fil2 {fill:rgb(33,159,208)} .fil3 {fill:rgb(33,159,208)} .fil4 {fill:rgb(33,159,208)} .fil0 {fill:#FFFFFF00}  </style> </defs> <rect class="fil0" width="29994" height="29994"/> <path class="fil1" d="m22213 4612.4c2216.3 2209.4 3479.2 5344.9 3196.3 8707.4-325.5 3868.4-2617.6 7099.3-5810 8792.4-1343.3 239.38-2853.2 319.43-4233.1 327.83 162.54-630.52 22.74-1790-71.25-2508.5 4275.4-1211.6 7560.4-4964 7955-9653.6 170.09-2021.1-218.85-3960-1037-5665.5zm-6953 17828c-893.61 3.12-1728.9-23.16-2424-54.67-131.65-420.29-431.78-1378.7-472.77-1512-39.65-128.81-1503.9-342.73-2071-712.9 355.87 65.68 718.2 114.63 1086.4 145.6 1283 107.96 2532.7-9.85 3710.8-318.97 81.62 383.16 234.29 1459.6 170.68 2452.9zm-2580.1-61.94c-417.09-19.93-778.08-41.11-1063.4-57.9-656.47-38.6-1265.7-12.42-1795.6 42.55-2321.3-1081-4181.6-2942.2-5274.8-5220.8 1457.4 1452.9 3327 2505.3 5441.2 2957.7 491.35 379.95 1721.2 661.7 2161.4 881.72 91.11 45.54 335.79 849.11 531.22 1396.7z"/> <path class="fil1" d="m5664.5 22728s4200.2-193.08 7176.4 115.72c19.15 58.47 39.79 114.12 62.21 164.12 71.31 159.1 88.45 396.56 61.07 570.65-27.34 112.63-47.99 231.75-69.06 345.55-536.96 10.29-1022.8 12.92-1341.8 2.93-272.87-8.53-13.41-137.04 94.1-160.6 528.97-115.83 1007.3-75.11-148.08-171.6-1155.4-96.5-2718.3 214.99-2788.4 2.51-70.08-212.51 875.29-135.22 560.18-328.4-315.09-193.18-104.94-154.58-1190.5-135.25-1085.5 19.36-3781.7-251.11-2416.1-405.63zm8067.5 178.02c209.4 9.21 429.39 15.86 657.97 20.26 8.53 72.21 17.29 144.37 26.14 216.55 10.51 85.48 24.01 174.99 30.61 260.65 0.96 12.42 0.3 24.1-3.32 36.03-16.16 53.05-144.85 199.13-182.23 250.87-31.86 44.13-54.87 113.82-71.18 198.05l-134.65 4.61c-97.22-211.07-230.2-430.74-355.15-610.06 12.93-124.27 23.7-250.78 31.8-376.96zm1594.3 26.71c3337.9-12.75 7756.6-361.4 8301.1-301.31 700.27 77.28 560.26 173.82-175.08 251.1-735.38 77.29-140.1 38.63-1820.8 115.9-1680.7 77.28-4727.1 154.54-3711.6 212.51 1015.4 57.96 1785.9 57.93 1330.6 154.52-455.24 96.58-3571.6 173.88-3361.5 193.17 210.09 19.31 734.9 153.5 140.07 231.81-124.16 16.31-422.45 35.96-813.65 55.38-15.69-73.49-32.64-145.06-50.54-213.76 39.43-148.03 75.02-298.33 111.19-446.95 19.84-81.57 36.11-166.58 50.21-252.37z"/> <path class="fil1" d="m10654 22166c-430.79 35.88-1466-111.43-1867.3-25.85-639.12 136.33-425.08 498.6 695.6 374.19 351.14-38.99 1814.1-16.82 3248.5 4.67l-1.43-3.8-0.48-1.29-1.89-5.12-1.91-5.12-1.92-5.14-1.94-5.21-1.92-5.18-0.42-1.17-1.49-4.07-1.95-5.23-1.94-5.3-1.95-5.27-1.94-5.33-1.35-3.68-0.6-1.64-1.95-5.36-1.97-5.39-1.98-5.41-1.94-5.42-1.98-5.45-0.33-0.87-1.64-4.58-1.98-5.47-2-5.51-1.98-5.54-2-5.53-1.26-3.53-0.72-2.04-2-5.57-2.01-5.59-2-5.63-2.01-5.63-2.03-5.65-0.21-0.6-1.8-5.06-2-5.68-2.04-5.72-2.03-5.72-2.01-5.74-1.2-3.33-0.84-2.42-2.03-5.78-2.04-5.77-2.06-5.81-2.04-5.8-2.03-5.84-0.12-0.3-1.95-5.54-2.03-5.86-2.07-5.87-2.06-5.89-2.07-5.9-1.07-3.11-0.99-2.82-2.07-5.92-2.06-5.96-2.07-5.95-2.06-5.96-2.1-5.95v-0.03l-2.06-5.99-2.1-6.02-2.06-6.01-2.1-6.05-2.09-6.01-0.99-2.85-3.17-9.27-2.1-6.08-2.09-6.07-8.41-24.43-2.1-6.13c-1122.4 7.03-1947.6 10.89-1947.6 10.89zm2224 355.24 503.74 7.36c123.92 405.18 1271.8 22 1721.6 17.42l149.01-1.67c10.8-134.92 17.45-271.85 20.5-408.89-853.47 7.48-1742.4 13.76-2509.8 18.64l0.6 1.95 10.35 33.06 10.09 32.19 9.78 31.27 9.49 30.27 9.16 29.23 8.8 28.1 8.44 26.92 8.05 25.67 7.63 24.33 7.18 22.96 6.74 21.51 6.25 19.97 5.78 18.4 5.23 16.73 1.44 4.58zm2457.1 22.06c1465.8-19.46 2842.3-80.4 3790.1-155.63 997.53-79.17 1425.1-253.32 1155.9-285.01-269.18-31.68-585.85-63.31-1710.1-15.83-437.37 18.5-1732.6 34.53-3152 47.31-16.61 155.06-43.6 294.13-83.81 409.16z"/> <path class="fil1" d="m19928 23586c212.87 0 1309.1-91.92 1266.5-9.18s-925.95 137.93-1106.9 128.72-361.87-110.34-159.65-119.55z"/> <path class="fil1" d="m5597.4 23684c306.13 19.43 1882.6-89.24 1821.4 94.72-61.27 183.96-1331.6 228.67-1591.8 191.25-260.19-37.42-520.39-283.51-229.6-285.97z"/> <path class="fil1" d="m15657 24306c118.9-23.76 1334.5-63.35 1823.4-39.59 488.83 23.77-105.77 95.01-409.63 95.01-303.87 0-1499.6 67.33-1578.9 15.86s112.31-63.35 165.15-71.28z"/> <path class="fil1" d="m9554.5 24497c187.18-37.4 2100.9-99.72 2870.5-62.32s-166.51 149.56-644.88 149.56c-478.38 0-2360.7 105.99-2485.6 24.97s176.82-99.72 259.99-112.21z"/> <path class="fil1" d="m10673 15263s-263.89 105.6-356.26 488.24c-92.37 382.66-316.67 1491-382.65 1794.5s-92.37 1174.4-92.37 1332.7l-0.21 92.49 603.62-1577.7c294.47-769.67-713.55 2119.4-473.94 2438.4 57 81.09 138.42 167.9 254.79 282.58 126.4 99.16 319.39 187.64 538.63 266.73 492.97 75.92 1428 203.8 1808.4 146.74 527.81-79.17 1332.7-79.17 1900.1-184.74 567.39-105.56 620.14-145.12 633.34-263.88 13.2-118.77-237.52-738.97-422.24-936.88-142.25-152.42-409.73-242.25-579.42-329.75-480.14-157.57-1037-197.33-1037-197.33l-0.15-0.15-0.06-0.09-0.36-0.39c-13.8-14.76-297.94-319.55-362.3-461.2-65.99-145.15-59.37-402.45-39.59-514.6 46.17-261.85 796.11-242.82 405.36-1615.3 154.64-493.57 356.41-662.69-72-875.23-32.52-21.46-54.07-38.54-56.1-56.88-6.62-59.4 85.75-277.12 178.13-316.71 92.37-39.58 270.41-132.01 375.98-455.29 105.57-323.29 79.2-620.15 85.78-705.93 6.59-85.79 6.53-336.35 6.53-336.35l98.98 23.1s72.57-155.06-13.2-504.73c-85.75-349.67-151.74-362.87-455.24-626.76-303.5-263.88-461.79-290.27-666.34-250.69-204.55 39.59-263.89 46.2-349.67 26.39-85.79-19.81-224.42-6.49-448.72 72.66-224.3 79.14-369.42 290.24-402.42 349.64s-481.82 389.52-541.17 950.3c-59.37 560.78-554.19 890.67-580.59 1194.2-26.39 303.47 98.98 567.39 98.98 567.39s-26.38-448.63 151.74-692.73c178.13-244.11 283.69-65.95 191.32 105.56-92.37 171.52-148.41 540.97-148.41 540.97s135.21-382.63 227.59-362.84c92.37 19.78 138.57 257.3 118.76 369.45s-197.57 224.15-197.57 224.15z"/> <path class="fil1" d="m10943 13112c-138.54 158.35-316.67 752.13-178.13 1227.2s-725.71 1550.4-1438.2 2005.6c-712.55 455.24-521.13 1477.8 13.25 2012.3 0 0-435.42-554.2 39.59-1326.1 0 0-79.17 653.14 98.95 890.67 0 0-29.65-475.02 346.38-791.69 376.04-316.67 306.83 118.73 762.03-356.29 455.21-475.02 811.47-1959.4 771.88-2117.8-39.58-158.35-415.71-1543.8-415.71-1543.8z"/> <path class="fil1" d="m15233 22742c-23.13 162.03-48.29 312.06-73.46 415.51-89.08 366.16-118.77 475.02-118.77 475.02s149.35 552.45 162.66 1099.7c-187.22 9.07-364.81 11.97-495.9-12.03-146.17-26.78-287.1-36.56-425.08-35.25-11.01-240.75-23.88-786.15 75.56-923.82 128.66-178.13 217.75-237.52 207.84-366.16-9.9-128.64-138.56-1039.1-128.66-1355.8 9.91-316.67 49.49-385.94 49.49-385.94h783.38c11.1 359.37 3.44 734.87-37.05 1088.7zm-1898.5 2061.2c-189.71-354.04-347.01-720.83-322.36-854.01 49.49-267.18 69.27-346.35 69.27-346.35s59.37-356.29-69.27-643.27c-128.63-286.98-336.47-1326.1-336.47-1326.1l1019.3-9.91s-59.37 682.87-69.27 999.53c-9.91 316.67-49.46 692.73-49.46 692.73s316.73 445.36 445.36 811.52c80.81 230.05 165.53 436.59 217.36 558.41-307.1 8.05-600.36 68.74-904.46 117.48z"/> <path class="fil1" d="m12529 24961s906.14-79.14 1337.2-126.64c431.05-47.48 730.13-47.48 976.48 23.77 246.34 71.25 1539.6-55.45 1478 47.48-61.61 102.94-1099.7 118.8-1222.8 126.7-237.96 15.26-720.45 88.18-175.96 110.8 285.91 11.89 563.05 19.79 466.26 134.59-96.79 114.82-2098.2 130.67-2177.4 67.33-79.16-63.35 52.8-95.03 281.53-142.52 228.73-47.48 475.11-166.28 246.35-158.35s-1583.5 55.42-1209.6-83.15z"/> <path class="fil1" d="m15643 25190c118.9-23.76 1334.5-63.35 1823.4-39.58 488.84 23.76-105.76 95-409.63 95s-1499.6 67.33-1578.9 15.86c-79.29-51.47 112.31-63.35 165.15-71.28z"/> <path class="fil1" d="m10260 25064c118.91-23.76 1334.5-63.34 1823.4-39.58s-105.77 95-409.63 95c-303.87 0-1499.6 67.33-1578.9 15.86-79.3-51.46 112.31-63.34 165.14-71.28z"/> <path class="fil1" d="m11042 17433s-265.1-26.94-416.6 27.88c-151.49 54.83-386.33 704.83-460.08 867.28s-412.67 1250.7-404.88 1359.7c7.8 109.03 35.23 646.06-37.37 938.67-72.62 292.54-126.55 319.72-175.3 327.71-48.78 7.99-102.69-84.38-51.2-177.53 51.47-93.14 52.68-232.13-6.71-227.45-59.39 4.69-176.4 218.8-159.78 351.45 16.65 132.62 56.31 157.2 50.43 213.31-5.92 56.08-54.96 99.77-114.91 39.37-59.98-60.4-119.68-196-101.57-269.18 18.14-73.15 48.05-224.44 48.05-224.44s-177.11 174.32-168.35 228.01c8.77 53.75 140.12 182.71 131.76 254.27-8.37 71.55-89.93 124.98-151.5 54.8-61.58-70.17-144.9-211.98-144.9-211.98s-62.17 110.41-135.44 122.37-97.35-74.34-64.58-149.9c32.78-75.55 31.52-175.6 3.21-226.13-28.32-50.53 32.1-140.61 93.33-195.72 0 0-64.06-54.73-55.69-126.28 8.36-71.56 39.49-126.76 142.23-203.7 102.74-76.95 280.32-156.09 365.56-340.44 85.24-184.33 82.24-1031.2 138.51-1301 56.22-269.89 495.52-1264.1 669.34-1673.5 173.81-409.41 255.49-1014.4 741.48-1354.4 486-340.03 719.99-257.89 719.99-257.89l-455.04 2154.8z"/> <path class="fil1" d="m13152 15243c580.41 123.54 672.91-175.95 1188.6-529.85 152.99-104.96 1039.8-891.62 1091.5-992.88 51.68-101.25 315.99-594.14 537.94-815.61 221.93-221.42 284.58-216.61 332.26-197.51 47.74 19.08 46.03 130.32-49.86 185.57-95.9 55.26-171.71 178.36-116.31 206.11 55.4 27.72 274.68-99.96 331.21-227.01 56.46-127.04 34.38-170.23 69.79-217.02 35.41-46.76 102.55-59.3 123.47 26.72 20.93 86.01 1.17 238.84-54.29 294.25-55.5 55.36-163.44 173.99-163.44 173.99s251.4-59.97 272.47-112.48c21.07-52.54-26.52-238.01 19.4-297.22 45.97-59.19 147.23-62.94 164.38 32.66 17.06 95.57 15 266.63 15 266.63s114.73-64.9 186.39-36.15c71.68 28.78 46.7 118.56-23.12 168.21-69.8 49.63-122.49 139.41-124.43 199.6-1.95 60.21-104.18 107.93-188.32 124.08 0 0 27.6 83.16-18.31 142.37-45.93 59.23-103.32 91.64-236.15 104.88-132.84 13.28-333.45-11.73-508.53 106.56-174.97 118.3-627.61 873.83-822.79 1083.9-195.17 210.05-1086.6 1010-1461.4 1281.1-261.22 188.85-595.43 273.05-835.64 745.08-92.91 182.46-425.62 341.64-612.01 354.16-615.42 41.34-754.67-600.51-754.67-600.51l1636.9-1469.6z"/> <polygon class="fil2" points="16620 8806.4 16823 10292 18309 10495 16823 10698 16620 12184 16417 10698 14931 10495 16417 10292"/> <path class="fil3" d="m12396 15657c-204.94 64.05-433.37 55.38-643.79-41.42-451.16-207.56-648.64-741.57-441.08-1192.7 152.89-332.35 482.94-527 826.51-523.53-234.47 73.28-438.18 241.76-548.94 482.51-207.56 451.16-10.08 985.17 441.09 1192.7 118.82 54.67 243.38 81.2 366.22 82.44z"/> <path class="fil2" d="m12396 15657c-15.26 4.77-30.67 9.13-46.18 13.09-134.37 4.05-271.7-22.1-402.1-82.08-451.17-207.56-648.65-741.57-441.09-1192.7 117.96-256.41 341.36-430.82 595.07-495.56 11.96-0.36 23.94-0.5 35.93-0.38-234.46 73.28-438.18 241.76-548.94 482.51-207.56 451.16-10.07 985.17 441.09 1192.7 118.82 54.67 243.39 81.19 366.22 82.44z"/> <path class="fil4" d="m14732 14851s-1038.2 574.08-1003.1 609.86c35.15 35.77 14.72 111.18 1003.1-609.86z"/> <polygon class="fil4" points="24011 13110 24033 13260 24182 13284 24033 13306 24009 13455 23987 13305 23838 13282 23987 13260"/> <path class="fil4" d="m10968 17587c96.15-17.94 188.65 45.47 206.6 141.62 17.94 96.14-45.48 188.63-141.61 206.6-96.15 17.94-188.65-45.47-206.59-141.63-17.97-96.13 45.45-188.63 141.6-206.59z"/> <path class="fil4" d="m15857 20479c26.91-5.03 52.83 12.74 57.84 39.64 5.02 26.92-12.73 52.82-39.66 57.86-26.9 5.01-52.82-12.74-57.83-39.66-5.04-26.9 12.73-52.82 39.65-57.84z"/> <path class="fil4" d="m12264 19261c34.62-6.46 67.94 16.39 74.4 51.01 6.46 34.59-16.36 67.93-50.98 74.39-34.62 6.44-67.94-16.39-74.4-51.01s16.36-67.93 50.98-74.39z"/> <path class="fil4" d="m18488 19290c20.12-3.77 39.46 9.51 43.22 29.6 3.74 20.13-9.51 39.46-29.63 43.22-20.1 3.74-39.46-9.51-43.2-29.62-3.76-20.11 9.51-39.46 29.61-43.2z"/> <path class="fil4" d="m24106 15622c76.36-14.24 149.79 36.09 164.06 112.45 14.24 76.34-36.11 149.8-112.45 164.04-76.37 14.25-149.8-36.09-164.04-112.45-14.27-76.34 36.09-149.79 112.43-164.04z"/> <path class="fil4" d="m22874 18181c36.24-6.76 71.11 17.15 77.87 53.39s-17.15 71.11-53.37 77.86c-36.24 6.77-71.13-17.14-77.86-53.38-6.77-36.24 17.12-71.11 53.36-77.87z"/> <path class="fil4" d="m23730 7574.6c36.24-6.77 71.11 17.14 77.86 53.38 6.77 36.24-17.14 71.11-53.36 77.87-36.24 6.76-71.13-17.15-77.89-53.39-6.74-36.24 17.15-71.11 53.39-77.86z"/> <path class="fil4" d="m12536 12784c39.14-7.31 76.79 18.52 84.11 57.66 7.31 39.15-18.52 76.81-57.65 84.11-39.16 7.3-76.81-18.51-84.12-57.66-7.3-39.13 18.51-76.79 57.66-84.11z"/> <path class="fil4" d="m22050 16922c48.8-9.12 95.76 23.07 104.86 71.87 9.12 48.8-23.06 95.76-71.89 104.86-48.8 9.12-95.74-23.09-104.84-71.89-9.12-48.8 23.07-95.74 71.87-104.84z"/> <path class="fil1" d="m8489.5 18494c66.83-12.47 131.12 31.61 143.59 98.42 12.48 66.83-31.59 131.12-98.42 143.59-66.83 12.48-131.12-31.59-143.59-98.42s31.59-131.1 98.42-143.59z"/> <path class="fil4" d="m23948 11497c39.89-7.46 78.27 18.87 85.73 58.76 7.46 39.92-18.87 78.3-58.77 85.76-39.91 7.43-78.29-18.87-85.75-58.79-7.44-39.89 18.87-78.3 58.79-85.73z"/> <path class="fil4" d="m10239 16193c39.89-7.46 78.29 18.87 85.73 58.77 7.46 39.91-18.87 78.3-58.77 85.75-39.91 7.44-78.29-18.89-85.75-58.78-7.44-39.9 18.89-78.3 58.79-85.74z"/> <path class="fil4" d="m10192 21974c48.8-9.1 95.77 23.08 104.87 71.88 9.12 48.81-23.09 95.77-71.89 104.87s-95.74-23.09-104.84-71.89c-9.13-48.8 23.06-95.74 71.86-104.86z"/> <path class="fil4" d="m14218 19869c36.22-6.77 71.11 17.14 77.86 53.38 6.77 36.24-17.14 71.11-53.38 77.87s-71.11-17.14-77.87-53.38c-6.76-36.22 17.15-71.11 53.39-77.87z"/> <path class="fil4" d="m23394 14091s-958.18 941.66-991.1 886.8c-32.91-54.86 921.6-857.54 991.1-886.8z"/> <path class="fil4" d="m22050 18845s-1124.3 841.28-1150.7 779.84c-26.41-61.43 1074.6-759.26 1150.7-779.84z"/> <polygon class="fil1" points="6444.2 17356 6474.8 17564 6682.2 17597 6474.4 17627 6441.4 17835 6410.9 17627 6203.5 17594 6411.2 17563"/> <path class="fil4" d="m7300.3 19618c28.87-5.38 56.65 13.66 62.03 42.51 5.38 28.87-13.66 56.65-42.51 62.03-28.87 5.4-56.65-13.64-62.03-42.51-5.4-28.87 13.64-56.65 42.51-62.03z"/> <path class="fil4" d="m16922 21538c36.24-6.77 71.11 17.12 77.87 53.36s-17.12 71.11-53.37 77.87c-36.24 6.76-71.1-17.13-77.86-53.37-6.77-36.24 17.12-71.11 53.36-77.86z"/> <path class="fil4" d="m10975 21653c36.24-6.76 71.11 17.14 77.86 53.39 6.77 36.22-17.14 71.11-53.36 77.86-36.24 6.77-71.13-17.14-77.89-53.38-6.74-36.24 17.15-71.11 53.39-77.87z"/> <path class="fil1" d="m19364 16987c39.91-7.44 78.29 18.89 85.75 58.79 7.44 39.89-18.87 78.3-58.79 85.73-39.89 7.46-78.27-18.87-85.73-58.76-7.46-39.92 18.87-78.3 58.77-85.76z"/> <path class="fil4" d="m24823 9990.5c39.89-7.46 78.3 18.87 85.73 58.76 7.46 39.9-18.87 78.3-58.76 85.74-39.92 7.45-78.3-18.87-85.76-58.77-7.43-39.89 18.87-78.3 58.79-85.73z"/> <polygon class="fil4" points="14088 21665 14111 21818 14264 21842 14111 21865 14086 22018 14064 21865 13911 21840 14064 21818"/> <path class="fil1" d="m22995 20218c54.47-10.16 106.86 25.76 117.02 80.2 10.16 54.47-25.74 106.86-80.2 117.02-54.44 10.16-106.83-25.74-117.01-80.2-10.16-54.45 25.75-106.83 80.19-117.02z"/> <path class="fil4" d="m18072 20719c54.44-10.16 106.83 25.74 117.01 80.2 10.16 54.47-25.76 106.86-80.2 117.02-54.46 10.16-106.85-25.76-117.01-80.2-10.16-54.47 25.73-106.86 80.2-117.02z"/> <path class="fil4" d="m8331.7 20759c39.91-7.46 78.29 18.87 85.75 58.76 7.44 39.92-18.87 78.3-58.79 85.76-39.89 7.43-78.29-18.87-85.73-58.79-7.46-39.89 18.87-78.3 58.77-85.73z"/> <path class="fil1" d="m9628.7 15077c34.6-6.45 67.93 16.38 74.38 51 6.46 34.62-16.37 67.93-50.99 74.4-34.62 6.46-67.93-16.39-74.39-51.01-6.47-34.6 16.38-67.93 51-74.39z"/> <polygon class="fil4" points="12404 16528 12427 16682 12580 16706 12427 16729 12402 16882 12380 16728 12227 16704 12380 16681"/> <path class="fil4" d="m13545 24299c26.9-5.03 52.82 12.74 57.84 39.64 5.01 26.92-12.73 52.82-39.66 57.86-26.9 5.01-52.82-12.74-57.83-39.66-5.04-26.9 12.73-52.82 39.65-57.84z"/> <path class="fil4" d="m10398 20795s-694.85 519.95-711.18 481.99c-16.33-37.97 664.17-469.27 711.18-481.99z"/> <polygon class="fil1" points="21823 11749 21853 11957 22061 11990 21853 12020 21820 12228 21789 12020 21582 11987 21790 11957"/> <path class="fil1" d="m22068 10656c52.94-9.88 103.88 25.05 113.76 77.96 9.88 52.94-25.04 103.88-77.97 113.76-52.94 9.88-103.87-25.03-113.75-77.96-9.89-52.94 25.03-103.86 77.96-113.76z"/> <path class="fil1" d="m20021 15266c52.94-9.88 103.87 25.05 113.76 77.96 9.88 52.94-25.04 103.88-77.97 113.76-52.94 9.88-103.88-25.03-113.76-77.97s25.04-103.86 77.97-113.75z"/> <path class="fil1" d="m15231 18715c39.92-7.44 78.3 18.89 85.76 58.79 7.43 39.89-18.87 78.29-58.79 85.73-39.89 7.46-78.27-18.87-85.73-58.77-7.46-39.91 18.87-78.29 58.76-85.75z"/> <path class="fil4" d="m19847 20811c39.89-7.46 78.29 18.87 85.73 58.76 7.46 39.92-18.87 78.3-58.77 85.76-39.91 7.44-78.29-18.89-85.75-58.79-7.44-39.89 18.89-78.3 58.79-85.73z"/> <polygon class="fil1" points="13354 11041 13385 11249 13593 11282 13385 11312 13352 11520 13321 11312 13114 11279 13322 11249"/> <path class="fil4" d="m11715 13224c29.71-5.55 58.3 14.06 63.85 43.77 5.56 29.72-14.05 58.32-43.76 63.87-29.73 5.54-58.32-14.06-63.87-43.78-5.54-29.71 14.05-58.32 43.78-63.86z"/> </svg>