<?xml version='1.0' encoding='utf-8'?>
<svg xmlns="http://www.w3.org/2000/svg" width="300mm" height="300mm" clip-rule="evenodd" fill-rule="evenodd" image-rendering="optimizeQuality" shape-rendering="geometricPrecision" text-rendering="geometricPrecision" version="1.1" viewBox="0 0 29994 29994"> <defs> <style type="text/css">  .fil1 {fill:rgb(125,220,245)} .fil3 {fill:#F2C10E} .fil2 {fill:rgb(33,159,208)} .fil4 {fill:rgb(33,159,208)} .fil0 {fill:rgba(255,255,255,0)}  </style> </defs> <rect class="fil0" width="29994" height="29994"/> <path class="fil1" d="m21945 2548.2c2313.3 2306.2 3631.6 5578.9 3336.2 9088.6-336.52 3999.6-2687.3 7346-5970.2 9126.5 301.83 4.97 466.96 22.72 617.71 40.45 280.98 33.07-165.28 214.85-1206.5 297.49-404.18 32.07-883.1 61.65-1412.6 86.82-104.94-648.76-377.79-2263.9-535.58-2540-134.39-235.21-579.86-424.83-853.14-522.65 3867.5-1577 6732.2-5216.4 7106.4-9663.7 177.53-2109.6-228.44-4133.4-1082.4-5913.5zm-6311.1 16812-859.67-579.78-468.96 179.93 250.48-375.73c169.75-45.32 337.9-94.82 504.62-147.76 99.98 126.4 233.21 268.73 391.47 376.64 98.32 67.06 153.1 274.41 182.05 546.69zm-49.1 1888.5c-346.49 8.18-701.48 14.27-1060.6 17.96-458.65 4.69-1080.4-1.22-1749.5-10.62l85.51-128.24 184.46-276.69 970.45-1455.7c497.69 128.65 1058.7 373.74 1155.7 492.29 112.59 137.57 319.79 966.08 413.92 1361zm-7094.6-431.08c-225.63-6.81-425.95-3.03-559.25 25.4-667.09 142.29-443.68 520.46 726.07 390.56 393.93-43.72 2128.2-7.81 3725.3 16.68l91.51-136.76 173.81-259.64 1022.9-1528.1c-126.31-16.71-236.55-18.65-317.79 0.09l427.54-164.03 309.8-462.84c-1105.4 245.77-2266.2 330.63-3454.1 230.68-2802.6-235.83-5284.3-1461.1-7131.5-3302.6 1058.2 2205.6 2805 4036.4 4985.6 5190.6z"/> <path class="fil1" d="m4748.9 21591s4233.8-376.42 7328.3-77.23l-514.78 868.95c-61.19-13.62-273.66-31.26-723.31-68.81-1206-100.73-2837.4 224.41-2910.5 2.62-45.59-138.26 2164.6-534.2-657.88-483.95-1133 20.18-3947.2-80.3-2521.9-241.58zm7816.6-31.82c844.9 65.34 1936.4 74.87 3102.5 54.5l167.69 635.58c-227.88 9.59-475.96 38.95-707.76 43.66-70.34 1.44-314.79 77.18-99.82 124.13 98.54 21.49 327.88 6.12 438.28 22.61 198.2 29.61 233.21 113.75-64.5 152.86-329.35 43.22-1669 34.63-2955.5 62.03 2.84-25.34 5.5-51.66 7.84-78.96 24.77-289.24-214.85-479.29-214.85-479.29l326.1-537.11zm3846.2 37.97c3163.7-84.54 6601-342.36 7086.5-288.77 730.94 80.67 584.8 181.43-182.74 262.1-767.57 80.67-146.23 40.32-1900.5 120.97-1754.3 80.67-4934 171.47-3874.1 221.82 575.18 27.32 1157.8-18.53 1418.7 4.68 219.81 19.56 187.39 105.07-29.83 156.6-475.11 112.76-1483.5 110.07-2408.1 147.11-25.67-164.38-68.81-403.84-109.91-624.5zm-5017.8 1070.1c-190.58-0.16-359.64-2.22-498.47-6.56-284.8-8.9-13.99-143.04 98.23-167.63 242.86-53.19 475.45-74.74 557.21-90.79l-156.97 264.98z"/> <path class="fil1" d="m13694 12815c-33.07-82.64 24.78-305.77-66.12-520.62-90.88-214.85 33.07-512.37 107.44-644.57s371.89-363.58 495.81-314.01c123.94 49.56 396.62 16.49 462.75-49.6 66.12-66.09 206.6-107.41 347.08-8.25s181.83-33.04 305.77 82.64c123.93 115.69-0.04 115.66 140.45 165.25 140.48 49.6 223.16 140.48 198.35 223.13-24.8 82.64-165.31 66.09-132.23 157.01 33.07 90.91 74.37 256.2-24.81 330.57-99.16 74.37-90.88 471.05-33.04 561.93 57.85 90.89 140.52 818.07-247.89 842.88-388.4 24.8-801.61-82.52-818.1 99.25-11.5 126.81-72.31 1345.4-87.79 2279.8-1.35 82.79-506.87-514.37-507.94-437.94-1.03 74.46 534.9 881.13 533.99 947.65l-380.95 813.2c15.78 403.96 459.21 462.96 459.21 462.96s75.65 22.93 198.8 63.5l-873.36 1304.7c-462.05-19.87-1671.2-130.33-2085.6-426.3-462.77-330.53-0.12-3090.7 247.8-3702.2s1388.3-1834.5 1586.6-1900.6c198.33-66.12 396.62-24.83 396.62-90.91 0-66.1-214.85-165.29-222.85-239.52zm1265.8 5162.9c599.73 213.92 1529.6 593.26 1684.3 935.73 231.36 512.37 479.26 2842.7 677.59 3156.7 118.59 187.76 213.5 328.25 235.33 414.39-479.27 7.25-1223.2 5.19-1466.3 4.28-16.87-22.09-30.98-50.75-41.66-88.1-66.12-231.4-528.89-2297.3-661.1-2545.2-107.75-202.07-830.35-524.93-1255-637.46l826.88-1240.3z"/> <path class="fil1" d="m18465 11727-7121.2 10421s-362.84 28.86-815.77 268.91c-452.94 240.05-844.11 1105.3-844.11 1105.3s-12.22 168.08 785.14 18.1c797.36-149.97 1111.1 93.84 1359.1 79.38 248.05-14.47 489.53-1010.8 407.47-1133.8-82.06-122.98-256.35-184.37-268.69-282.76-12.35-98.39 6977.6-10370 7010.3-10640 32.66-270.62-246.15-368.89-512.25 164.2z"/> <path class="fil1" d="m14056 16821c-162.07-119.01-178.3-1013.3-272.82-1339-47.76-164.42 1205.8-391.48 1901.9-740.96 681.81-342.23 1392-924.74 1487-931.62 192.17-13.92 520.08 253.93 693.41 84.79 140.43-137.16 338.54-605.81 239.84-819.47-23-49.85-233.11-109.58-286.27-141.98-281.17-171.4-576.39-32.03-850.65 144.03-137.81 88.43-689.09 479.98-1355.5 665.19-659.42 183.25-1433.3 159.53-1772.5 411.59-682.16 506.9-579.98 1457.5-329.6 1658.1 250.39 200.69 545.11 1009.3 545.11 1009.3z"/> <path class="fil1" d="m12859 14541c53.6 242.7 105.77 1899.2 594.26 2082.9 488.45 183.6 1638.4 616.81 1723.1 698 84.73 81.19 349.19-38.52 624.57-108.24 275.37-69.73 616.55-441.26 270.36-700.64-346.22-259.38-320.95-170.26-436.89-89.98-115.92 80.26-152.8-192.99-351.16-93.43s-158.98 106.27-359.61 105.35c-89.77-0.38-670.83-161.36-927.03-587.97-316.33-526.72-30.43-1660.3-74.21-1732.2-79.3-130.23-1073.7-209.47-1063.4 426.24z"/> <path class="fil1" d="m8854.4 23832s945.83-82.61 1395.8-132.17c449.91-49.57 762.09-49.57 1019.2 24.8s1607-57.88 1542.7 49.57c-64.32 107.44-1147.8 123.99-1276.4 132.23-248.39 15.93-752 92.04-183.66 115.66 298.43 12.4 587.7 20.64 486.67 140.48s-2190.1 136.39-2272.7 70.27c-82.63-66.12 55.12-99.19 293.85-148.76 238.73-49.56 495.9-173.56 257.13-165.28s-1652.9 57.84-1262.5-86.79z"/> <path class="fil1" d="m15065 22766s851.18-41.32 1256.1-90.85c324.07-39.66 2376-126.56 2305.6 4.12-57.84 107.44-1033 144.7-1148.7 152.92-223.5 15.93-676.72 92.04-165.28 115.65 268.57 12.37 855.3-49.56 764.38 70.25s-2528.7 198.39-2603.1 132.26c-74.37-66.12 280.97-90.94 495.81-140.51 214.85-49.56 446.28-173.56 231.4-165.28s-1487.5 66.09-1136.2-78.55z"/> <path class="fil1" d="m16094 23282c28.92-4.13 1280.9-90.92 1322.2-37.2s-165.32 74.4-471.05 90.92c-305.74 16.52-1289.2 86.76-851.15-53.72z"/> <path class="fil1" d="m12105 24071c124.11-24.8 1393-66.12 1903.2-41.32s-110.4 99.16-427.57 99.16c-317.18 0-1565.2 70.28-1648 16.56-82.77-53.72 117.23-66.12 172.38-74.4z"/> <path class="fil1" d="m20420 20799c222.19 0 1366.4-95.94 1322-9.58-44.47 86.37-966.49 143.97-1155.3 134.36-188.86-9.62-377.72-115.18-166.65-124.79z"/> <path class="fil1" d="m6041.5 20997c222.2 14.1 1366.4-64.77 1322 68.76-44.46 133.52-966.49 165.97-1155.3 138.81-188.85-27.15-377.72-205.78-166.65-207.57z"/> <path class="fil1" d="m6486 23939c124.11-24.8 1393-66.12 1903.2-41.31 510.24 24.8-110.4 99.16-427.57 99.16-317.18 0-1565.2 70.28-1648 16.56-82.77-53.73 117.23-66.13 172.38-74.41z"/> <path class="fil2" d="m24681 11190c-221.95 69.37-469.34 59.98-697.22-44.85-488.6-224.79-702.48-803.11-477.7-1291.7 165.59-359.93 523.02-570.74 895.11-566.98-253.93 79.36-474.56 261.83-594.5 522.56-224.78 488.61-10.91 1066.9 477.71 1291.7 128.67 59.2 263.58 87.94 396.61 89.28z"/> <path class="fil3" d="m24681 11190c-16.53 5.17-33.21 9.89-50.02 14.18-145.51 4.39-294.24-23.93-435.47-88.9-488.6-224.79-702.48-803.1-477.7-1291.7 127.76-277.7 369.7-466.58 644.46-536.7 12.95-0.39 25.92-0.55 38.92-0.42-253.93 79.36-474.57 261.84-594.5 522.56-224.79 488.6-10.92 1066.9 477.7 1291.7 128.68 59.2 263.59 87.93 396.61 89.28z"/> <path class="fil4" d="m15634 14086s-1038.2 574.08-1003.1 609.86c35.15 35.77 14.72 111.18 1003.1-609.86z"/> <polygon class="fil4" points="24141 11890 24163 12040 24312 12064 24163 12086 24139 12235 24117 12085 23968 12062 24117 12040"/> <path class="fil4" d="m12230 16060c96.15-17.94 188.65 45.47 206.6 141.62 17.94 96.14-45.48 188.63-141.61 206.6-96.15 17.94-188.65-45.47-206.59-141.63-17.97-96.13 45.45-188.63 141.6-206.59z"/> <path class="fil4" d="m15611 18832c26.91-5.03 52.83 12.74 57.84 39.64 5.02 26.92-12.73 52.82-39.66 57.86-26.9 5.01-52.82-12.74-57.83-39.66-5.04-26.9 12.73-52.82 39.65-57.84z"/> <path class="fil4" d="m14917 17333c34.62-6.46 67.94 16.39 74.4 51.01 6.46 34.59-16.36 67.93-50.98 74.39-34.62 6.44-67.94-16.39-74.4-51.01s16.36-67.93 50.98-74.39z"/> <path class="fil4" d="m12851 17053c47.76-8.9 93.73 22.61 102.64 70.38 8.92 47.78-22.59 93.73-70.36 102.65-47.78 8.91-93.73-22.61-102.66-70.37-8.9-47.76 22.59-93.73 70.38-102.66z"/> <path class="fil4" d="m16693 14674c20.12-3.77 39.46 9.51 43.22 29.6 3.74 20.13-9.51 39.46-29.63 43.22-20.1 3.74-39.46-9.51-43.2-29.62-3.76-20.11 9.51-39.46 29.61-43.2z"/> <path class="fil4" d="m23326 12614c76.36-14.24 149.79 36.09 164.06 112.45 14.24 76.34-36.11 149.8-112.45 164.04-76.37 14.25-149.8-36.09-164.04-112.45-14.27-76.34 36.09-149.79 112.43-164.04z"/> <path class="fil4" d="m22919 16358c36.24-6.76 71.11 17.15 77.87 53.39s-17.15 71.11-53.37 77.86c-36.24 6.77-71.13-17.14-77.86-53.38-6.77-36.24 17.12-71.11 53.36-77.87z"/> <path class="fil4" d="m24092 7338.9c36.24-6.77 71.11 17.14 77.86 53.38 6.77 36.24-17.14 71.11-53.36 77.87-36.24 6.76-71.13-17.15-77.89-53.39-6.74-36.24 17.15-71.11 53.39-77.86z"/> <path class="fil4" d="m17338 13346c54.44-10.16 106.83 25.76 117.01 80.2 10.16 54.47-25.76 106.85-80.2 117.01-54.46 10.16-106.85-25.73-117.01-80.2-10.16-54.44 25.73-106.83 80.2-117.01z"/> <path class="fil4" d="m22096 15099c48.8-9.12 95.76 23.07 104.86 71.87 9.12 48.8-23.06 95.76-71.89 104.86-48.8 9.12-95.74-23.09-104.84-71.89-9.12-48.8 23.07-95.74 71.87-104.84z"/> <path class="fil1" d="m10418 16205c66.83-12.47 131.12 31.61 143.59 98.42 12.48 66.83-31.59 131.12-98.42 143.59-66.83 12.48-131.12-31.59-143.59-98.42s31.59-131.1 98.42-143.59z"/> <path class="fil4" d="m14526 12231c39.89-7.46 78.27 18.87 85.73 58.76 7.46 39.92-18.87 78.3-58.77 85.76-39.91 7.43-78.29-18.87-85.75-58.79-7.44-39.89 18.87-78.3 58.79-85.73z"/> <path class="fil4" d="m19892 16529c39.89-7.46 78.29 18.87 85.73 58.77 7.46 39.91-18.87 78.3-58.77 85.75-39.91 7.44-78.29-18.89-85.75-58.78-7.44-39.9 18.89-78.3 58.79-85.74z"/> <path class="fil4" d="m10661 20807c48.8-9.1 95.77 23.08 104.87 71.88 9.12 48.81-23.09 95.77-71.89 104.87s-95.74-23.09-104.84-71.89c-9.13-48.8 23.06-95.74 71.86-104.86z"/> <path class="fil4" d="m17734 28034c36.22-6.77 71.11 17.14 77.86 53.38 6.77 36.24-17.14 71.11-53.38 77.87s-71.11-17.14-77.87-53.38c-6.76-36.22 17.15-71.11 53.39-77.87z"/> <path class="fil4" d="m16116 28740c30.79-5.75 60.43 14.57 66.18 45.36s-14.57 60.43-45.37 66.18c-30.79 5.75-60.43-14.57-66.18-45.36-5.75-30.8 14.55-60.43 45.37-66.18z"/> <path class="fil4" d="m23344 11707s-958.18 941.66-991.1 886.8c-32.91-54.86 921.6-857.54 991.1-886.8z"/> <path class="fil4" d="m22095 17022s-1124.3 841.28-1150.7 779.84c-26.41-61.43 1074.6-759.26 1150.7-779.84z"/> <polygon class="fil1" points="5769.9 16231 5800.5 16439 6007.9 16472 5800.1 16503 5767.2 16710 5736.6 16502 5529.2 16469 5736.9 16439"/> <path class="fil4" d="m6160.4 18684c28.87-5.38 56.65 13.66 62.03 42.51 5.38 28.87-13.66 56.65-42.51 62.03-28.87 5.4-56.65-13.64-62.03-42.51-5.4-28.87 13.64-56.65 42.51-62.03z"/> <path class="fil4" d="m16460 21472c36.24-6.77 71.11 17.12 77.87 53.36s-17.12 71.11-53.37 77.87c-36.24 6.76-71.1-17.13-77.86-53.37-6.77-36.24 17.12-71.11 53.36-77.86z"/> <path class="fil4" d="m11021 19830c36.24-6.76 71.11 17.14 77.86 53.39 6.77 36.22-17.14 71.11-53.36 77.86-36.24 6.77-71.13-17.14-77.89-53.38-6.74-36.24 17.15-71.11 53.39-77.87z"/> <path class="fil1" d="m19409 15165c39.91-7.44 78.29 18.89 85.75 58.79 7.44 39.89-18.87 78.3-58.79 85.73-39.89 7.46-78.27-18.87-85.73-58.76-7.46-39.92 18.87-78.3 58.77-85.76z"/> <path class="fil4" d="m24515 8590.8c39.89-7.46 78.3 18.87 85.73 58.76 7.46 39.9-18.87 78.3-58.76 85.74-39.92 7.45-78.3-18.87-85.76-58.77-7.43-39.89 18.87-78.3 58.79-85.73z"/> <polygon class="fil4" points="14133 19842 14156 19995 14309 20019 14156 20042 14131 20195 14109 20042 13956 20017 14109 19995"/> <path class="fil1" d="m23040 18395c54.47-10.16 106.86 25.76 117.02 80.2 10.16 54.47-25.74 106.86-80.2 117.02-54.44 10.16-106.83-25.74-117.01-80.2-10.16-54.45 25.75-106.83 80.19-117.02z"/> <path class="fil4" d="m18118 18896c54.44-10.16 106.83 25.74 117.01 80.2 10.16 54.47-25.76 106.86-80.2 117.02-54.46 10.16-106.85-25.76-117.01-80.2-10.16-54.47 25.73-106.86 80.2-117.02z"/> <path class="fil4" d="m7720.9 19211c39.91-7.46 78.29 18.87 85.75 58.76 7.44 39.92-18.87 78.3-58.79 85.76-39.89 7.43-78.29-18.87-85.73-58.79-7.46-39.89 18.87-78.3 58.77-85.73z"/> <path class="fil1" d="m11113 13931c34.6-6.45 67.93 16.38 74.38 51 6.46 34.62-16.37 67.93-50.99 74.4-34.62 6.46-67.93-16.39-74.39-51.01-6.47-34.6 16.38-67.93 51-74.39z"/> <polygon class="fil4" points="15140 11793 15162 11946 15315 11970 15162 11993 15138 12146 15115 11993 14962 11968 15115 11946"/> <polygon class="fil4" points="13217 14520 13239 14674 13392 14698 13239 14721 13215 14874 13192 14720 13039 14696 13192 14673"/> <path class="fil4" d="m23255 5103.2c39.92-7.44 78.3 18.89 85.76 58.78 7.43 39.9-18.87 78.3-58.79 85.74-39.89 7.46-78.28-18.87-85.73-58.77-7.46-39.91 18.87-78.29 58.76-85.75z"/> <path class="fil4" d="m10983 22566c26.91-5.04 52.82 12.73 57.84 39.63 5.01 26.93-12.73 52.83-39.66 57.86-26.9 5.02-52.82-12.73-57.83-39.65-5.04-26.91 12.73-52.83 39.65-57.84z"/> <path class="fil4" d="m13017 19928c26.9-5.03 52.82 12.74 57.84 39.64 5.01 26.92-12.73 52.82-39.66 57.86-26.9 5.01-52.82-12.74-57.83-39.66-5.04-26.9 12.73-52.82 39.65-57.84z"/> <polygon class="fil4" points="13038 18768 13060 18922 13214 18946 13060 18969 13036 19122 13013 18968 12860 18944 13014 18921"/> <path class="fil4" d="m9671.1 19490s-694.85 519.95-711.18 481.99c-16.33-37.97 664.17-469.27 711.18-481.99z"/> <polygon class="fil1" points="21868 9926.2 21899 10134 22106 10167 21898 10198 21865 10405 21835 10197 21627 10164 21835 10134"/> <path class="fil1" d="m22113 8833c52.94-9.88 103.88 25.05 113.76 77.96 9.88 52.94-25.04 103.88-77.97 113.76-52.94 9.88-103.87-25.03-113.75-77.96-9.89-52.94 25.03-103.86 77.96-113.76z"/> <path class="fil1" d="m18670 13126c52.94-9.88 103.87 25.05 113.76 77.96 9.88 52.94-25.04 103.88-77.97 113.76-52.94 9.88-103.88-25.03-113.76-77.97s25.04-103.86 77.97-113.75z"/> <path class="fil1" d="m16525 15813c39.92-7.44 78.3 18.89 85.76 58.79 7.43 39.89-18.87 78.29-58.79 85.73-39.89 7.46-78.27-18.87-85.73-58.77-7.46-39.91 18.87-78.29 58.76-85.75z"/> <path class="fil4" d="m19892 18988c39.89-7.46 78.29 18.87 85.73 58.76 7.46 39.92-18.87 78.3-58.77 85.76-39.91 7.44-78.29-18.89-85.75-58.79-7.44-39.89 18.89-78.3 58.79-85.73z"/> <polygon class="fil1" points="13103 10340 13134 10548 13342 10581 13134 10611 13101 10819 13070 10611 12863 10578 13070 10547"/> </svg>